<?xml version="1.0" standalone="no"?>
<!DOCTYPE svg PUBLIC "-//W3C//DTD SVG 20010904//EN"
 "http://www.w3.org/TR/2001/REC-SVG-20010904/DTD/svg10.dtd">
<svg version="1.0" xmlns="http://www.w3.org/2000/svg"
 width="426.000000pt" height="483.000000pt" viewBox="0 0 426.000000 483.000000"
 preserveAspectRatio="xMidYMid meet">
<metadata>
Created by potrace 1.15, written by Peter Selinger 2001-2017
</metadata>
<g transform="translate(0.000000,483.000000) scale(0.100000,-0.100000)"
fill="#000000" stroke="none">
<path d="M0 3332 c0 -1486 0 -1499 20 -1517 25 -23 25 -35 0 -35 -15 0 -20 -7
-20 -27 0 -21 3 -24 12 -15 7 7 21 12 31 12 21 0 87 -37 99 -54 5 -7 56 -11
135 -10 l128 1 -130 -12 c-84 -7 -134 -8 -143 -2 -15 12 -27 3 -17 -13 4 -7
19 -10 33 -7 30 6 54 -1 46 -14 -2 -5 0 -18 6 -30 10 -17 8 -24 -9 -40 -11
-10 -25 -19 -30 -19 -5 0 -17 -10 -25 -22 -9 -12 -19 -18 -23 -14 -5 5 -2 11
4 13 22 8 14 33 -12 43 -14 5 -25 14 -25 20 0 5 -5 10 -12 10 -9 0 -9 -3 0
-12 7 -7 12 -19 12 -28 -1 -12 -2 -12 -11 3 -5 9 -20 17 -32 17 l-22 1 23 19
c12 10 26 20 31 22 5 2 11 12 15 23 5 18 2 20 -39 17 l-45 -4 0 -829 0 -829
840 0 c462 0 840 2 840 5 0 3 -11 22 -24 43 -60 95 -91 189 -107 317 -20 171
-68 371 -120 499 -27 66 -53 122 -59 124 -5 2 -10 8 -10 14 0 12 -81 197 -105
238 -14 26 -61 42 -95 33 -15 -4 -17 -12 -13 -41 3 -21 13 -48 22 -62 26 -37
33 -50 28 -50 -7 0 -81 101 -89 123 -8 18 -23 22 -32 8 -6 -9 36 -93 62 -123
7 -9 12 -21 9 -25 -3 -5 3 -22 14 -39 10 -16 19 -35 19 -42 0 -7 12 -23 27
-36 32 -27 35 -76 8 -106 -16 -18 -17 -23 -4 -48 7 -15 31 -43 51 -63 32 -30
38 -43 38 -77 0 -70 -70 -103 -140 -67 -16 8 -34 24 -40 34 -16 32 -12 89 9
110 10 10 20 35 23 56 3 31 1 38 -17 45 -26 10 -55 52 -55 80 0 11 8 28 18 38
17 17 22 80 7 114 -4 9 -4 22 -1 27 7 10 -24 83 -47 111 -7 9 -32 22 -57 30
-56 18 -188 106 -233 157 -19 21 -61 72 -92 113 -32 41 -70 89 -86 105 -59 63
-128 259 -113 320 9 38 21 30 29 -20 3 -25 12 -60 19 -78 7 -18 17 -41 21 -52
5 -11 9 -23 9 -26 2 -12 86 -137 101 -149 25 -21 26 -7 5 55 -11 32 -20 66
-20 77 0 10 -4 18 -10 18 -5 0 -10 7 -10 16 0 11 -6 13 -19 9 -28 -8 -39 17
-46 105 l-6 74 24 -22 c32 -30 37 -28 37 17 0 25 5 41 15 45 8 3 15 11 15 18
0 7 8 23 18 35 14 18 29 22 82 24 36 1 71 6 77 12 7 5 24 6 38 3 20 -5 25 -3
25 13 0 11 4 22 9 26 13 8 14 22 14 174 -1 82 -5 137 -12 144 -6 6 -11 20 -11
32 0 12 -5 26 -12 33 -11 11 -22 64 -35 160 -5 40 14 134 37 187 5 11 14 38
20 60 15 55 43 119 54 126 4 4 6 11 4 15 -3 5 3 23 13 39 40 65 59 105 59 124
0 11 5 23 10 26 6 3 10 19 10 34 0 16 7 34 15 41 8 7 15 21 15 30 0 21 31 80
43 80 4 0 7 6 7 13 0 23 25 67 38 67 7 0 10 5 7 11 -4 5 -4 37 0 70 5 43 11
59 22 59 10 0 13 5 8 18 -4 9 -10 25 -12 34 -6 21 40 103 78 139 19 18 26 33
23 46 -4 15 0 22 16 26 18 5 21 10 16 34 -8 35 21 78 59 87 14 4 25 13 25 21
0 7 9 17 20 20 11 3 20 12 20 20 0 7 10 22 23 32 13 10 22 24 19 31 -2 6 0 12
5 13 4 0 31 3 58 6 28 3 69 6 92 5 29 -1 43 4 47 15 7 18 64 11 78 -10 6 -9
11 -8 18 5 18 30 187 45 250 22 19 -7 82 -20 139 -29 57 -9 111 -20 120 -25 9
-4 41 -15 73 -24 31 -9 58 -23 61 -31 6 -13 20 -18 130 -46 38 -9 46 -15 42
-29 -4 -14 4 -20 39 -29 25 -6 54 -11 65 -11 12 0 21 -4 21 -10 0 -5 12 -13
28 -16 34 -8 102 -45 102 -56 0 -4 6 -8 14 -8 7 0 19 -7 26 -15 9 -10 9 -15 1
-15 -6 0 -11 -5 -11 -11 0 -6 6 -9 13 -6 6 2 18 -2 25 -9 7 -8 10 -14 6 -14
-3 0 -1 -7 6 -15 7 -9 19 -14 27 -11 8 3 16 -1 19 -9 4 -8 12 -15 19 -15 8 0
23 -12 34 -26 12 -15 21 -21 21 -14 0 8 10 4 25 -10 14 -13 22 -26 19 -29 -3
-3 -9 1 -14 9 -5 8 -12 11 -17 6 -4 -4 16 -28 45 -53 28 -24 52 -49 52 -54 0
-6 9 -20 20 -32 12 -12 16 -23 10 -25 -18 -6 -11 -29 15 -46 13 -9 32 -31 42
-49 38 -71 82 -237 97 -364 4 -29 20 -85 36 -125 17 -40 30 -74 30 -75 0 -2 5
-3 10 -3 11 0 8 52 -6 98 -3 12 -2 22 2 22 5 0 8 78 6 172 -2 139 -7 187 -23
242 -24 79 -67 179 -80 184 -5 2 -9 9 -9 17 0 18 -148 185 -173 195 -21 8 -21
9 -2 9 11 1 31 -6 43 -15 20 -14 22 -14 22 0 0 9 -5 16 -11 16 -5 0 -8 4 -5 9
6 9 -141 151 -156 151 -4 0 -8 8 -8 18 0 9 -19 28 -41 42 -58 36 -194 174
-175 178 20 4 3 35 -44 79 -37 35 -31 44 10 16 32 -22 40 -31 70 -75 14 -21
37 -43 53 -49 15 -6 27 -15 27 -20 0 -5 6 -9 14 -9 8 0 17 -6 19 -12 4 -9 6
-7 6 3 1 9 -8 28 -19 42 -26 33 -25 47 3 47 27 0 148 -114 173 -163 l16 -32
-30 29 c-17 15 -35 25 -40 22 -6 -4 -13 -2 -17 4 -3 5 -1 10 6 10 15 0 2 15
-14 15 -7 1 -11 6 -10 11 1 6 -14 26 -32 44 -38 37 -45 34 -18 -7 10 -14 18
-33 19 -41 2 -13 16 -30 88 -105 13 -13 21 -16 25 -8 5 7 13 -5 21 -29 14 -41
45 -78 57 -66 4 3 2 11 -5 18 -12 12 -20 4 93 103 44 38 86 76 94 83 29 28 62
45 71 36 4 -5 25 -40 45 -79 21 -38 45 -83 55 -100 21 -35 158 -300 364 -700
l67 -130 -21 -17 c-19 -15 -21 -24 -15 -55 4 -21 15 -55 26 -77 10 -21 16 -42
14 -46 -3 -5 -28 -11 -56 -15 -67 -9 -53 -20 28 -20 l65 0 79 -150 c44 -82 87
-164 96 -182 18 -35 35 -46 59 -36 13 5 15 23 11 127 -4 119 -10 152 -81 455
-15 63 -25 126 -21 139 3 13 28 44 55 69 28 25 50 52 50 60 0 20 -128 272
-151 297 -5 6 -9 16 -9 24 0 7 -11 28 -25 46 -14 18 -25 36 -25 39 0 3 -22 45
-50 93 -27 48 -50 91 -50 97 0 6 -6 18 -14 26 -17 20 -29 71 -17 71 19 0 83
-90 78 -109 -3 -13 0 -17 12 -14 12 3 23 -12 41 -57 14 -33 35 -67 48 -76 12
-8 20 -19 17 -23 -2 -5 6 -25 20 -45 14 -20 25 -43 25 -51 0 -8 4 -15 9 -15 5
0 14 -15 20 -33 7 -19 23 -49 36 -68 14 -18 23 -39 21 -46 -3 -7 -1 -15 4 -18
6 -4 10 40 10 112 l0 119 -49 95 c-161 310 -175 325 -268 292 -21 -7 -47 -11
-58 -8 -27 6 -141 181 -213 325 -15 30 -30 57 -33 60 -11 9 -39 73 -39 88 0 9
-7 23 -16 33 -8 9 -23 39 -34 65 l-18 49 -1766 3 -1766 2 0 -1498z m3289 1145
c17 -31 31 -63 31 -70 0 -6 -19 -29 -42 -49 -50 -43 -54 -42 -107 46 l-33 56
48 50 c55 57 55 58 103 -33z"/>
<path d="M1863 3502 c-13 -2 -23 -10 -23 -18 0 -12 -7 -14 -32 -9 -18 4 -30 4
-26 0 5 -5 -27 -24 -70 -43 -42 -19 -81 -41 -85 -49 -4 -7 -16 -13 -26 -13
-22 0 -51 -40 -51 -69 0 -14 5 -19 16 -14 8 3 13 12 9 20 -3 11 -1 13 10 9 8
-3 15 -1 15 4 0 17 103 69 150 76 25 4 51 11 57 16 7 6 59 9 121 7 79 -3 113
0 124 9 9 7 22 11 29 10 19 -4 25 52 7 63 -12 9 -179 9 -225 1z"/>
<path d="M3129 3206 c-5 -5 -114 -26 -162 -31 -48 -5 -78 -47 -91 -126 -5 -31
-2 -42 21 -70 32 -37 112 -91 125 -83 4 3 6 9 3 14 -3 6 11 9 32 7 32 -2 38 1
39 18 1 11 5 27 9 37 5 12 -1 18 -24 23 -27 6 -30 10 -27 32 3 13 10 31 17 39
9 11 8 18 -5 33 -15 17 -16 19 -1 25 9 3 38 6 64 6 42 0 52 -5 95 -46 l49 -46
24 38 c12 22 21 44 20 49 -2 6 -22 14 -45 19 -23 6 -42 16 -42 23 0 12 -24 18
-64 15 -12 -2 -16 3 -12 13 5 14 -14 22 -25 11z"/>
<path d="M1925 3021 c-16 -4 -41 -17 -55 -29 -14 -11 -49 -41 -78 -66 -29 -25
-59 -46 -66 -46 -8 0 -19 -6 -25 -14 -6 -8 -32 -19 -56 -25 -25 -6 -45 -16
-45 -21 0 -6 4 -10 10 -10 5 0 7 -7 4 -15 -7 -17 32 -85 49 -85 7 0 17 -10 22
-22 6 -13 25 -29 43 -37 17 -8 32 -21 32 -28 0 -8 5 -11 10 -8 6 4 8 11 4 16
-7 12 15 41 26 34 13 -8 234 -32 249 -27 6 2 11 12 11 23 0 22 48 39 59 20 9
-14 37 -5 45 15 4 10 2 13 -7 8 -8 -5 -7 -2 2 9 10 13 22 16 47 11 22 -4 34
-2 34 5 0 6 -10 11 -22 11 -21 1 -21 2 -5 11 10 6 31 7 47 4 25 -5 29 -4 24 9
-4 11 0 16 13 16 10 0 35 11 55 25 39 27 63 31 73 15 4 -6 10 -8 15 -5 12 7
-20 45 -38 45 -9 0 -12 6 -8 15 6 17 -29 35 -70 35 -13 0 -24 6 -24 13 0 7
-23 21 -50 31 -28 10 -54 24 -58 31 -4 6 -16 17 -27 22 -26 14 -202 24 -240
14z m278 -87 c18 -9 34 -20 37 -23 3 -3 14 -12 25 -19 70 -44 80 -52 62 -52
-10 0 -20 -7 -23 -15 -4 -8 -15 -15 -27 -15 -11 0 -28 -6 -36 -13 -15 -13
-116 -57 -130 -57 -4 0 -5 18 -3 41 4 37 3 40 -14 31 -20 -10 -34 -8 -71 10
-12 6 -40 8 -63 5 -29 -4 -40 -2 -37 6 2 7 21 13 43 15 21 2 43 8 49 13 15 15
25 11 35 -13 l9 -23 0 23 c1 12 6 22 11 22 15 0 12 26 -5 40 -8 7 -15 16 -15
20 0 23 111 25 153 4z"/>
<path d="M3445 2882 c-6 -29 0 -45 41 -115 86 -148 123 -240 160 -402 22 -92
24 -272 10 -655 -8 -224 -8 -236 10 -251 22 -17 224 -54 233 -42 17 23 92 64
113 61 21 -3 20 -5 -15 -25 -21 -13 -44 -23 -52 -23 -12 0 -30 -27 -27 -41 1
-3 -35 -5 -80 -4 -76 2 -79 1 -54 -12 15 -8 34 -12 42 -9 9 3 14 -1 14 -13 0
-11 6 -22 13 -25 6 -3 -4 -5 -23 -4 -19 0 -52 0 -72 -1 -36 -1 -38 -2 -38 -36
0 -51 29 -76 88 -75 50 1 112 -17 141 -42 36 -31 58 -27 74 14 4 11 2 15 -7
12 -7 -3 -21 4 -31 16 -19 21 -8 29 13 8 8 -8 12 -8 12 -1 0 6 -14 16 -30 23
-42 18 -51 35 -14 27 23 -4 33 -1 42 14 13 20 42 26 42 9 0 -5 7 -10 15 -10 8
0 15 5 15 10 0 6 -4 10 -9 10 -5 0 -22 5 -37 10 -21 8 -24 14 -16 22 17 17 15
28 -5 28 -10 1 -34 10 -53 20 l-35 20 30 -6 c17 -3 38 -8 48 -11 24 -6 57 6
57 21 0 8 -15 17 -32 21 l-33 8 30 6 c17 3 28 10 27 15 -6 14 20 26 53 25 17
0 23 -3 15 -6 -8 -2 -21 -7 -29 -9 -10 -3 -11 -8 -4 -15 8 -8 17 -8 31 0 16 8
25 6 46 -10 l26 -20 35 28 35 28 0 293 c0 189 -3 291 -10 287 -5 -3 -18 -2
-27 4 -10 5 -31 11 -48 14 -16 3 -41 10 -55 15 -24 9 -24 10 -5 17 11 4 29 11
40 15 11 5 39 14 63 20 39 10 42 13 42 44 l0 34 -87 6 c-124 8 -243 23 -250
30 -28 27 103 27 295 0 l42 -6 0 41 c0 48 16 46 -176 23 -78 -10 -147 -16
-153 -14 -6 2 -11 18 -11 36 0 39 -18 96 -31 96 -5 0 -9 7 -9 16 0 14 -8 16
-52 11 -29 -4 -62 -9 -73 -12 -11 -3 -29 1 -40 9 -17 14 -18 17 -5 26 8 5 22
9 30 9 10 0 11 -2 3 -6 -7 -2 -13 -9 -13 -14 0 -12 47 -12 55 1 3 6 -1 10 -9
10 -9 0 -16 5 -16 10 0 6 5 10 10 10 6 0 23 11 38 25 23 22 25 27 12 35 -29
19 -64 23 -114 13 -45 -10 -53 -9 -69 8 -31 33 -38 65 -17 84 10 9 24 15 32
14 7 -2 28 5 46 15 24 12 32 23 30 38 -5 32 -39 39 -85 18 -30 -13 -44 -15
-52 -7 -17 17 -24 1 -11 -23 6 -12 9 -24 6 -27 -3 -3 -9 3 -12 13 -15 41 -36
81 -67 126 -17 25 -37 55 -43 65 -10 16 -12 14 -19 -15z"/>
<path d="M2975 2331 c-95 -34 -134 -65 -135 -105 0 -31 78 -15 111 22 15 17
36 33 47 36 11 4 25 13 32 21 8 9 22 12 41 8 33 -6 40 11 10 27 -27 14 -48 12
-106 -9z"/>
<path d="M3227 1843 l22 -15 -24 -33 c-20 -26 -35 -34 -73 -39 -26 -3 -71 -13
-100 -22 -44 -14 -57 -15 -76 -4 -21 11 -28 9 -57 -11 -47 -34 -80 -62 -95
-79 -79 -93 -146 -185 -150 -209 -6 -26 0 -36 46 -81 28 -27 58 -50 66 -50 8
0 14 -4 14 -8 0 -4 26 -16 58 -26 31 -10 65 -22 74 -27 10 -5 24 -6 32 -3 16
6 86 -27 106 -50 7 -9 60 -48 119 -88 85 -57 113 -71 144 -71 39 0 62 12 38
21 -7 2 -21 13 -29 23 -9 11 -21 19 -27 19 -12 0 -55 32 -92 67 -13 12 -23 19
-23 16 0 -4 -11 4 -24 16 -13 13 -41 29 -63 36 -26 9 -39 20 -41 34 -2 12 -8
19 -13 15 -6 -3 -20 5 -33 18 -12 12 -34 33 -48 45 -14 11 -30 28 -34 36 -5 8
-27 18 -49 23 -31 7 -43 16 -54 42 -8 17 -22 32 -30 32 -10 1 -7 6 9 15 l25
14 -27 1 c-16 0 -28 5 -28 10 0 15 44 30 68 23 11 -2 23 0 26 6 4 6 2 11 -3
11 -6 0 -11 5 -11 10 0 6 3 9 8 9 20 -3 32 2 32 16 0 8 5 15 10 15 6 0 10 11
10 24 0 19 8 27 36 36 20 7 49 9 65 6 24 -4 36 0 55 19 48 49 138 56 269 22
33 -8 61 -14 63 -13 7 8 -41 96 -53 96 -8 0 -16 7 -16 15 -1 8 -2 21 -3 28 -2
21 -19 27 -81 26 -57 0 -59 -1 -38 -16z"/>
<path d="M4216 1411 c-21 -22 -24 -30 -13 -34 8 -3 18 -26 21 -51 4 -25 11
-48 17 -51 8 -6 5 -52 -7 -113 -7 -33 -28 -22 -34 17 -5 29 -23 40 -26 16 0
-5 -2 -19 -3 -30 -2 -16 -4 -15 -13 8 -6 18 -15 26 -24 23 -8 -3 -14 -1 -14 4
0 6 -10 10 -21 10 -20 0 -21 -1 -5 -22 9 -13 21 -33 26 -45 5 -13 14 -23 20
-23 5 0 10 -9 10 -20 0 -13 7 -20 20 -20 12 0 33 -8 47 -17 15 -10 24 -12 20
-5 -5 7 -3 12 7 12 14 0 16 24 16 185 0 102 -4 185 -8 185 -5 0 -21 -13 -36
-29z"/>
<path d="M3695 1173 c-8 -19 -15 -41 -15 -47 0 -6 -7 -22 -16 -34 -15 -22 -16
-58 -4 -234 0 -5 5 -8 11 -8 7 0 9 10 5 26 -5 18 -1 33 11 47 17 19 17 20 1
14 -10 -4 -18 -2 -18 4 0 25 57 21 173 -15 45 -14 47 -14 38 3 -6 10 -16 22
-23 28 -16 13 -124 54 -160 60 -35 7 -37 23 -3 23 14 0 25 5 25 11 0 6 7 17
15 26 9 9 13 23 10 34 -4 13 -2 19 8 19 24 0 6 61 -21 71 -19 7 -24 4 -37 -28z"/>
<path d="M3870 891 c0 -7 14 -14 30 -17 22 -5 30 -12 30 -27 0 -16 -3 -18 -12
-9 -7 7 -37 12 -67 12 -51 -1 -54 -2 -37 -15 11 -8 30 -15 42 -15 22 0 61 -32
103 -85 13 -16 21 -22 18 -12 -19 49 -19 52 2 28 12 -13 21 -29 21 -36 0 -12
49 -34 89 -41 7 -2 26 -14 40 -28 31 -29 43 -33 35 -11 -10 24 12 17 30 -9 11
-18 12 -26 4 -28 -7 -3 3 -20 25 -42 l37 -37 0 121 c0 72 -4 119 -9 115 -10
-5 -49 9 -130 48 -24 12 -50 22 -57 23 -7 1 -27 12 -44 24 -22 15 -38 20 -56
16 -16 -4 -23 -3 -20 3 8 12 0 17 -41 26 -22 4 -33 3 -33 -4z"/>
<path d="M3631 690 c-17 -38 -50 -91 -67 -108 -9 -9 -14 -26 -12 -41 3 -14 2
-39 -2 -56 l-8 -30 -1 36 c0 20 -4 38 -7 42 -3 3 -23 -4 -43 -17 -20 -13 -53
-28 -74 -35 -20 -7 -41 -20 -46 -29 -17 -34 -30 -141 -37 -295 l-7 -157 243 1
c231 0 241 1 226 18 -9 10 -16 22 -16 28 0 6 -4 13 -9 15 -4 1 -11 14 -15 28
-3 14 -3 20 0 13 3 -7 12 -9 20 -6 8 3 14 0 14 -7 0 -8 9 -10 25 -6 15 4 25 2
25 -4 0 -6 15 -25 33 -41 l32 -30 3 25 c2 14 -4 38 -12 53 -14 26 -15 27 -16
6 0 -30 -20 -30 -20 0 0 13 -3 27 -7 31 -4 3 -8 13 -9 20 -2 15 -29 50 -57 75
-55 48 -69 63 -63 68 3 3 1 14 -4 23 -8 15 -6 17 13 12 21 -5 21 -4 5 15 -10
11 -18 24 -18 30 0 6 -4 13 -8 15 -4 2 -18 19 -32 38 l-23 35 36 -34 c20 -19
39 -32 42 -29 7 7 -11 50 -42 100 -13 21 -23 40 -23 43 0 12 40 -36 56 -67 9
-18 31 -49 49 -70 18 -20 42 -56 53 -81 14 -31 31 -51 54 -63 18 -9 36 -21 39
-26 4 -6 9 -6 13 1 4 6 -4 16 -18 23 -14 6 -26 18 -26 25 0 22 57 -22 76 -58
14 -28 17 -29 64 -23 43 6 50 4 50 -10 0 -14 -4 -15 -21 -6 -11 6 -25 9 -32 7
-7 -2 0 -10 15 -17 38 -18 61 0 47 37 -5 14 -16 69 -25 122 -14 87 -19 100
-50 132 -20 20 -48 43 -62 50 -15 8 -52 31 -83 51 -31 21 -63 38 -72 38 -23 0
-117 51 -117 64 0 6 -4 5 -9 -3 -7 -11 -12 -6 -19 20 l-9 34 -12 -25z"/>
</g>
</svg>
