<?xml version="1.0" standalone="no"?>
<!DOCTYPE svg PUBLIC "-//W3C//DTD SVG 20010904//EN"
 "http://www.w3.org/TR/2001/REC-SVG-20010904/DTD/svg10.dtd">
<svg version="1.0" xmlns="http://www.w3.org/2000/svg"
 width="320.000000pt" height="320.000000pt" viewBox="0 0 320.000000 320.000000"
 preserveAspectRatio="xMidYMid meet">

<g transform="translate(0.000000,320.000000) scale(0.100000,-0.100000)"
fill="#000000" stroke="none">
<path d="M0 1600 l0 -1600 1600 0 1600 0 0 1600 0 1600 -1600 0 -1600 0 0
-1600z m1760 1570 c0 -5 -4 -10 -10 -10 -5 0 -10 5 -10 10 0 6 5 10 10 10 6 0
10 -4 10 -10z m100 0 c0 -5 -4 -10 -10 -10 -5 0 -10 5 -10 10 0 6 5 10 10 10
6 0 10 -4 10 -10z m50 -40 c6 -11 8 -20 6 -20 -3 0 -10 9 -16 20 -6 11 -8 20
-6 20 3 0 10 -9 16 -20z m-510 0 c0 -5 -4 -10 -10 -10 -5 0 -10 5 -10 10 0 6
5 10 10 10 6 0 10 -4 10 -10z m444 -9 c4 -5 -3 -7 -14 -4 -13 4 -20 0 -20 -10
0 -18 68 -47 111 -47 39 0 97 -53 80 -73 -12 -15 2 -78 22 -99 52 -53 73 -188
41 -263 l-15 -37 -19 33 c-10 19 -27 49 -36 67 -10 17 -22 32 -27 32 -4 0 1
12 12 26 21 27 29 97 13 120 -18 26 -60 44 -104 44 -41 0 -52 4 -75 31 -40 45
-61 50 -105 26 l-37 -20 -40 27 c-50 35 -87 29 -130 -19 -35 -40 -66 -50 -106
-35 -38 14 -45 26 -45 76 0 38 26 90 36 69 25 -56 30 -60 72 -63 38 -3 48 1
82 32 36 33 44 35 83 30 48 -7 88 8 121 45 20 22 89 30 100 12z m-216 -8 c-10
-2 -28 -2 -40 0 -13 2 -5 4 17 4 22 1 32 -1 23 -4z m-68 -7 c0 -2 -7 -7 -16
-10 -8 -3 -12 -2 -9 4 6 10 25 14 25 6z m847 -42 c-3 -3 -12 -4 -19 -1 -8 3
-5 6 6 6 11 1 17 -2 13 -5z m110 0 c-3 -3 -12 -4 -19 -1 -8 3 -5 6 6 6 11 1
17 -2 13 -5z m-1197 -13 c0 -6 -4 -13 -10 -16 -5 -3 -10 1 -10 9 0 9 5 16 10
16 6 0 10 -4 10 -9z m1040 -1 c0 -5 -4 -10 -10 -10 -5 0 -10 5 -10 10 0 6 5
10 10 10 6 0 10 -4 10 -10z m-300 -40 c0 -5 -4 -10 -10 -10 -5 0 -10 5 -10 10
0 6 5 10 10 10 6 0 10 -4 10 -10z m7 -62 c-3 -7 -5 -2 -5 12 0 14 2 19 5 13 2
-7 2 -19 0 -25z m753 22 c0 -6 -11 -8 -27 -4 -40 10 -41 14 -5 14 18 0 32 -5
32 -10z m-1207 -30 c39 -21 92 -26 102 -10 12 19 51 10 83 -20 26 -23 43 -30
74 -30 29 0 49 -7 65 -22 28 -26 29 -49 3 -73 -23 -21 -26 -45 -7 -64 10 -11
8 -12 -10 -6 -32 9 -29 -9 7 -55 39 -49 39 -61 0 -19 -32 36 -53 32 -30 -6 68
-110 91 -133 103 -102 3 7 6 4 6 -6 1 -11 -8 -21 -20 -24 -16 -4 -19 -11 -14
-27 15 -47 16 -62 6 -89 -10 -25 -15 -27 -66 -27 -30 0 -54 -3 -54 -7 4 -22
-6 -34 -53 -70 -69 -52 -123 -81 -175 -93 -24 -6 -43 -15 -43 -20 0 -5 19 -10
43 -12 41 -3 40 -4 -37 -23 l-78 -19 -36 21 c-37 21 -57 48 -28 37 11 -4 16
-1 16 10 0 9 -3 16 -7 16 -9 0 -51 40 -93 89 -44 51 -63 99 -68 177 -6 102 13
194 59 288 46 91 62 113 93 122 11 3 38 24 59 45 44 45 49 46 100 19z m720 6
c10 -8 15 -16 10 -19 -4 -2 -17 4 -27 14 -22 22 -10 25 17 5z m-1522 -68 c-3
-21 -6 -26 -9 -15 -3 17 3 47 11 47 2 0 1 -15 -2 -32z m546 -30 c-3 -7 -5 -2
-5 12 0 14 2 19 5 13 2 -7 2 -19 0 -25z m895 -12 c2 -19 0 -32 -4 -30 -8 5
-12 64 -4 64 2 0 6 -15 8 -34z m-1317 3 c11 -16 1 -19 -13 -3 -7 8 -8 14 -3
14 5 0 13 -5 16 -11z m1805 -23 c0 -2 -7 -7 -16 -10 -8 -3 -12 -2 -9 4 6 10
25 14 25 6z m-310 -10 c0 -2 -7 -7 -16 -10 -8 -3 -12 -2 -9 4 6 10 25 14 25 6z
m-115 -16 c3 -5 -1 -10 -9 -10 -9 0 -16 5 -16 10 0 6 4 10 9 10 6 0 13 -4 16
-10z m-175 -21 c0 -11 -4 -17 -10 -14 -5 3 -10 13 -10 21 0 8 5 14 10 14 6 0
10 -9 10 -21z m-1340 -14 c0 -14 -4 -25 -10 -25 -5 0 -10 11 -10 25 0 14 5 25
10 25 6 0 10 -11 10 -25z m1560 15 c0 -5 -5 -10 -11 -10 -5 0 -7 5 -4 10 3 6
8 10 11 10 2 0 4 -4 4 -10z m-80 -40 c0 -5 -5 -10 -11 -10 -5 0 -7 5 -4 10 3
6 8 10 11 10 2 0 4 -4 4 -10z m460 -30 c0 -5 -2 -10 -4 -10 -3 0 -8 5 -11 10
-3 6 -1 10 4 10 6 0 11 -4 11 -10z m-540 -10 c0 -5 -4 -10 -10 -10 -5 0 -10 5
-10 10 0 6 5 10 10 10 6 0 10 -4 10 -10z m-232 -25 c-3 -3 -9 2 -12 12 -6 14
-5 15 5 6 7 -7 10 -15 7 -18z m476 -1 c3 -8 2 -12 -4 -9 -6 3 -10 10 -10 16 0
14 7 11 14 -7z m156 -25 c0 -22 -6 -24 -24 -7 -9 9 -10 15 -2 24 14 15 26 8
26 -17z m-1500 -49 c0 -5 -4 -10 -10 -10 -5 0 -10 5 -10 10 0 6 5 10 10 10 6
0 10 -4 10 -10z m147 -112 c-2 -18 -4 -6 -4 27 0 33 2 48 4 33 2 -15 2 -42 0
-60z m-147 2 c0 -16 -4 -30 -10 -30 -5 0 -10 14 -10 30 0 17 5 30 10 30 6 0
10 -13 10 -30z m983 2 c-10 -10 -20 -17 -22 -16 -6 5 20 34 30 34 5 0 1 -8 -8
-18z m-1123 -32 c0 -16 -5 -30 -10 -30 -6 0 -9 14 -8 30 1 17 6 30 10 30 4 0
8 -13 8 -30z m1400 10 c0 -5 -4 -10 -10 -10 -5 0 -10 5 -10 10 0 6 5 10 10 10
6 0 10 -4 10 -10z m-1289 -43 c-10 -9 -11 -8 -5 6 3 10 9 15 12 12 3 -3 0 -11
-7 -18z m966 -9 c-3 -7 -5 -2 -5 12 0 14 2 19 5 13 2 -7 2 -19 0 -25z m823 2
c0 -5 -4 -10 -10 -10 -5 0 -10 5 -10 10 0 6 5 10 10 10 6 0 10 -4 10 -10z
m-1580 -60 c0 -5 -2 -10 -4 -10 -3 0 -8 5 -11 10 -3 6 -1 10 4 10 6 0 11 -4
11 -10z m1040 -4 c0 -3 -4 -8 -10 -11 -5 -3 -10 -1 -10 4 0 6 5 11 10 11 6 0
10 -2 10 -4z m-380 -31 c0 -6 -61 -65 -68 -65 -3 0 -3 2 -1 5 2 2 15 18 29 34
23 27 40 38 40 26z m-812 -12 c-15 -2 -42 -2 -60 0 -18 2 -6 4 27 4 33 0 48
-2 33 -4z m-138 -7 c0 -3 -4 -8 -10 -11 -5 -3 -10 -1 -10 4 0 6 5 11 10 11 6
0 10 -2 10 -4z m200 -6 c0 -5 -2 -10 -4 -10 -3 0 -8 5 -11 10 -3 6 -1 10 4 10
6 0 11 -4 11 -10z m1710 0 c0 -5 -4 -10 -10 -10 -5 0 -10 5 -10 10 0 6 5 10
10 10 6 0 10 -4 10 -10z m-1670 -25 c19 -22 8 -25 -12 -3 -10 10 -14 18 -9 18
5 0 14 -7 21 -15z m-77 -16 c46 -13 69 -56 60 -113 -6 -41 -18 -47 -27 -13 -7
30 -73 96 -103 103 -43 11 -46 -2 -7 -31 74 -53 108 -140 67 -171 -25 -19 -28
-18 -55 24 -51 76 -118 126 -118 87 0 -8 4 -15 8 -15 15 0 72 -84 72 -106 0
-12 -7 -30 -16 -38 -19 -19 -54 -21 -54 -3 0 20 -69 97 -86 97 -10 0 -13 -6
-10 -18 5 -13 -1 -22 -19 -30 -24 -11 -25 -10 -25 25 0 138 164 244 313 202z
m-290 -34 c-3 -9 -8 -14 -10 -11 -3 3 -2 9 2 15 9 16 15 13 8 -4z m1417 0 c0
-8 -4 -15 -10 -15 -5 0 -10 7 -10 15 0 8 5 15 10 15 6 0 10 -7 10 -15z m627
-7 c-3 -8 -6 -5 -6 6 -1 11 2 17 5 13 3 -3 4 -12 1 -19z m-1077 -27 l30 -18
-32 -35 c-47 -51 -140 -96 -218 -105 l-65 -8 -24 -49 c-52 -110 -76 -381 -48
-541 l12 -69 40 -9 c25 -5 69 -5 115 2 41 5 102 13 135 16 33 3 87 14 120 24
33 11 63 16 66 13 4 -4 12 -36 18 -71 10 -52 10 -66 -1 -76 -19 -17 -122 -51
-198 -65 -36 -6 -84 -16 -107 -21 -72 -16 -231 -10 -311 10 -41 11 -75 21 -76
23 -1 2 -10 37 -20 78 -10 41 -20 80 -23 87 -3 8 6 10 30 6 19 -3 37 -1 39 3
3 5 1 65 -4 134 -13 194 9 377 63 508 7 17 5 29 -6 45 -8 12 -15 38 -15 58 0
28 5 38 24 47 22 10 25 8 36 -18 18 -43 70 -64 144 -57 88 7 160 34 198 73 39
40 38 40 78 15z m-990 -11 c0 -5 -4 -10 -10 -10 -5 0 -10 5 -10 10 0 6 5 10
10 10 6 0 10 -4 10 -10z m2077 -127 c-2 -21 -4 -6 -4 32 0 39 2 55 4 38 2 -18
2 -50 0 -70z m-774 43 c4 -10 1 -13 -9 -9 -7 3 -14 9 -14 14 0 14 17 10 23 -5z
m-863 -12 c0 -32 -40 -83 -75 -94 -50 -17 -60 -4 -24 32 17 17 37 42 46 55 18
26 53 31 53 7z m1000 -45 c0 -5 -4 -9 -10 -9 -5 0 -10 7 -10 16 0 8 5 12 10 9
6 -3 10 -10 10 -16z m-50 -19 c0 -6 -9 -2 -20 7 -11 10 -20 19 -20 21 0 1 9
-2 20 -8 11 -6 20 -15 20 -20z m40 -40 c6 -11 8 -20 6 -20 -3 0 -10 9 -16 20
-6 11 -8 20 -6 20 3 0 10 -9 16 -20z m-1520 6 c0 -3 -4 -8 -10 -11 -5 -3 -10
-1 -10 4 0 6 5 11 10 11 6 0 10 -2 10 -4z m350 -37 c-12 -22 -92 -59 -129 -59
-14 0 -39 8 -54 19 -24 15 -26 19 -12 25 9 3 41 3 70 0 50 -6 56 -5 82 23 31
32 61 27 43 -8z m-430 -3 c0 -3 -4 -8 -10 -11 -5 -3 -10 -1 -10 4 0 6 5 11 10
11 6 0 10 -2 10 -4z m1659 -50 c-3 -3 -11 5 -18 17 -13 21 -12 21 5 5 10 -10
16 -20 13 -22z m-1739 10 c0 -3 -4 -8 -10 -11 -5 -3 -10 -1 -10 4 0 6 5 11 10
11 6 0 10 -2 10 -4z m2270 -25 c0 -5 -7 -11 -14 -14 -10 -4 -13 -1 -9 9 6 15
23 19 23 5z m-2350 -15 c0 -3 -4 -8 -10 -11 -5 -3 -10 -1 -10 4 0 6 5 11 10
11 6 0 10 -2 10 -4z m2280 -26 c0 -5 -10 -15 -22 -21 l-23 -12 20 21 c23 24
25 25 25 12z m-402 -25 c-3 -3 -9 2 -12 12 -6 14 -5 15 5 6 7 -7 10 -15 7 -18z
m-1958 11 c0 -3 -4 -8 -10 -11 -5 -3 -10 -1 -10 4 0 6 5 11 10 11 6 0 10 -2
10 -4z m2028 -31 c-3 -3 -9 2 -12 12 -6 14 -5 15 5 6 7 -7 10 -15 7 -18z m282
5 c0 -5 -4 -10 -10 -10 -5 0 -10 5 -10 10 0 6 5 10 10 10 6 0 10 -4 10 -10z
m-70 -24 c0 -3 -4 -8 -10 -11 -5 -3 -10 -1 -10 4 0 6 5 11 10 11 6 0 10 -2 10
-4z m-1910 -127 c0 -10 -4 -19 -10 -19 -5 0 -10 12 -10 26 0 14 4 23 10 19 6
-3 10 -15 10 -26z m1740 -59 c0 -5 -2 -10 -4 -10 -3 0 -8 5 -11 10 -3 6 -1 10
4 10 6 0 11 -4 11 -10z m-480 -66 c0 -8 -4 -12 -10 -9 -5 3 -10 13 -10 21 0 8
5 12 10 9 6 -3 10 -13 10 -21z m520 -64 c0 -5 -4 -10 -10 -10 -5 0 -10 5 -10
10 0 6 5 10 10 10 6 0 10 -4 10 -10z m-513 -32 c-3 -8 -6 -5 -6 6 -1 11 2 17
5 13 3 -3 4 -12 1 -19z m-1177 -13 c19 -22 8 -25 -12 -3 -10 10 -14 18 -9 18
5 0 14 -7 21 -15z m1288 -20 c-3 -3 -9 2 -12 12 -6 14 -5 15 5 6 7 -7 10 -15
7 -18z m-1191 -21 c-3 -3 -12 -4 -19 -1 -8 3 -5 6 6 6 11 1 17 -2 13 -5z m76
-1 c-7 -2 -21 -2 -30 0 -10 3 -4 5 12 5 17 0 24 -2 18 -5z m172 -23 c3 -5 1
-10 -4 -10 -6 0 -11 5 -11 10 0 6 2 10 4 10 3 0 8 -4 11 -10z m842 -12 c-3 -8
-6 -5 -6 6 -1 11 2 17 5 13 3 -3 4 -12 1 -19z m163 -18 c0 -5 -4 -10 -10 -10
-5 0 -10 5 -10 10 0 6 5 10 10 10 6 0 10 -4 10 -10z m357 -22 c-3 -7 -5 -2 -5
12 0 14 2 19 5 13 2 -7 2 -19 0 -25z m-1350 -20 c-3 -8 -6 -5 -6 6 -1 11 2 17
5 13 3 -3 4 -12 1 -19z m853 -29 c0 -11 -4 -17 -10 -14 -5 3 -10 15 -10 26 0
11 5 17 10 14 6 -3 10 -15 10 -26z m520 11 c0 -5 -4 -10 -10 -10 -5 0 -10 5
-10 10 0 6 5 10 10 10 6 0 10 -4 10 -10z m-345 -30 c3 -5 1 -10 -4 -10 -6 0
-11 5 -11 10 0 6 2 10 4 10 3 0 8 -4 11 -10z m304 -103 c1 -72 -19 -137 -41
-137 -8 0 -28 -13 -46 -30 -33 -30 -52 -38 -52 -22 0 4 5 13 11 19 6 6 8 17 4
23 -5 8 -17 2 -39 -19 -34 -33 -89 -50 -100 -32 -5 7 -1 9 8 5 18 -7 23 21 6
31 -5 3 -10 17 -10 30 0 13 -3 30 -6 39 -8 21 -34 21 -34 0 0 -8 -4 -12 -10
-9 -5 3 -10 25 -10 49 0 33 6 48 28 68 23 22 39 26 109 31 61 5 94 13 125 30
52 29 56 24 57 -76z m-1299 73 c0 -5 -4 -10 -10 -10 -5 0 -10 5 -10 10 0 6 5
10 10 10 6 0 10 -4 10 -10z m965 -29 c-3 -6 -11 -11 -16 -11 -5 0 -4 6 3 14
14 16 24 13 13 -3z m-145 -86 c0 -14 -4 -25 -10 -25 -5 0 -10 11 -10 25 0 14
5 25 10 25 6 0 10 -11 10 -25z m124 -91 c3 -8 2 -12 -4 -9 -6 3 -10 10 -10 16
0 14 7 11 14 -7z m-864 -134 c0 -5 -4 -10 -10 -10 -5 0 -10 5 -10 10 0 6 5 10
10 10 6 0 10 -4 10 -10z m993 3 c-7 -2 -21 -2 -30 0 -10 3 -4 5 12 5 17 0 24
-2 18 -5z m-1030 -73 c-5 -19 -23 -29 -23 -12 0 7 20 32 26 32 1 0 0 -9 -3
-20z m-40 -80 c-5 -19 -23 -29 -23 -12 0 7 20 32 26 32 1 0 0 -9 -3 -20z m-33
-64 c0 -2 -8 -10 -17 -17 -16 -13 -17 -12 -4 4 13 16 21 21 21 13z m930 -86
c0 -5 -2 -10 -4 -10 -3 0 -8 5 -11 10 -3 6 -1 10 4 10 6 0 11 -4 11 -10z
m-997 -15 c-3 -9 -8 -14 -10 -11 -3 3 -2 9 2 15 9 16 15 13 8 -4z m-233 -5 c0
-5 -4 -10 -10 -10 -5 0 -10 5 -10 10 0 6 5 10 10 10 6 0 10 -4 10 -10z m1237
-42 c-3 -8 -6 -5 -6 6 -1 11 2 17 5 13 3 -3 4 -12 1 -19z m33 -124 c0 -8 -4
-12 -10 -9 -5 3 -10 10 -10 16 0 5 5 9 10 9 6 0 10 -7 10 -16z m-602 -39 c-24
-25 -46 -45 -50 -45 -10 0 75 89 85 90 4 0 -11 -20 -35 -45z m-658 -16 c0 -14
-17 -10 -23 5 -4 10 -1 13 9 9 7 -3 14 -9 14 -14z m53 -69 c15 -16 23 -30 19
-30 -5 0 -18 14 -30 30 -13 17 -21 30 -19 30 2 0 16 -13 30 -30z m907 6 c0 -2
-7 -7 -16 -10 -8 -3 -12 -2 -9 4 6 10 25 14 25 6z m-410 -19 c0 -2 -15 -13
-32 -26 l-33 -22 28 25 c26 24 37 31 37 23z m320 -11 c0 -3 -4 -8 -10 -11 -5
-3 -10 -1 -10 4 0 6 5 11 10 11 6 0 10 -2 10 -4z m-744 -37 c19 -22 19 -22 -3
-8 -13 8 -23 17 -23 21 0 12 6 9 26 -13z m1139 1 c-3 -5 -12 -10 -18 -10 -7 0
-6 4 3 10 19 12 23 12 15 0z m-1091 -36 c3 -8 2 -12 -4 -9 -6 3 -10 10 -10 16
0 14 7 11 14 -7z m286 6 c0 -5 -4 -10 -10 -10 -5 0 -10 5 -10 10 0 6 5 10 10
10 6 0 10 -4 10 -10z m300 6 c0 -2 -7 -7 -16 -10 -8 -3 -12 -2 -9 4 6 10 25
14 25 6z m-362 -51 c-12 -14 -23 -25 -25 -25 -2 0 4 11 13 25 9 14 20 25 25
25 5 0 -1 -11 -13 -25z m-123 -35 c3 -5 -1 -10 -9 -10 -9 0 -16 5 -16 10 0 6
4 10 9 10 6 0 13 -4 16 -10z m490 0 c3 -5 -1 -10 -9 -10 -9 0 -16 5 -16 10 0
6 4 10 9 10 6 0 13 -4 16 -10z m240 0 c-3 -5 -11 -10 -16 -10 -6 0 -7 5 -4 10
3 6 11 10 16 10 6 0 7 -4 4 -10z"/>
<path d="M1442 2842 c-32 -27 -42 -52 -21 -52 25 0 90 45 87 59 -5 25 -31 23
-66 -7z"/>
<path d="M1704 2835 c-17 -12 -16 -15 19 -51 45 -47 65 -37 40 18 -20 44 -34
52 -59 33z"/>
<path d="M1383 2739 c-18 -18 -16 -43 5 -69 16 -19 22 -21 40 -11 24 13 47 49
37 59 -3 3 -14 1 -24 -5 -21 -13 -37 -5 -42 20 -3 15 -6 16 -16 6z"/>
<path d="M1646 2713 c-3 -3 -6 -21 -6 -38 0 -31 25 -65 47 -65 14 0 59 42 66
63 8 21 -2 22 -31 1 -28 -19 -52 -12 -52 15 0 21 -13 35 -24 24z"/>
<path d="M1530 2702 c0 -4 -18 -26 -40 -48 -44 -43 -49 -70 -22 -104 24 -29
45 -18 38 18 -5 21 2 37 29 71 20 25 34 49 32 55 -5 14 -37 21 -37 8z"/>
<path d="M1868 2618 c-3 -7 -1 -17 4 -23 5 -5 23 -29 40 -53 21 -30 34 -40 41
-33 7 7 2 23 -17 50 -38 54 -63 76 -68 59z"/>
<path d="M1440 2466 c0 -7 12 -16 28 -19 32 -6 37 -3 29 18 -8 19 -57 20 -57
1z"/>
<path d="M1435 2411 c-8 -27 4 -51 26 -51 25 0 34 23 19 49 -13 26 -37 27 -45
2z"/>
<path d="M1435 2299 c9 -16 23 -33 31 -36 20 -8 44 15 44 43 0 24 -14 32 -25
14 -4 -7 -12 -7 -25 0 -34 18 -41 12 -25 -21z"/>
</g>
</svg>
