<?xml version="1.0" standalone="no"?>
<!DOCTYPE svg PUBLIC "-//W3C//DTD SVG 20010904//EN"
 "http://www.w3.org/TR/2001/REC-SVG-20010904/DTD/svg10.dtd">
<svg version="1.0" xmlns="http://www.w3.org/2000/svg"
 width="800.000000pt" height="800.000000pt" viewBox="0 0 800.000000 800.000000"
 preserveAspectRatio="xMidYMid meet">
<metadata>
Created by potrace 1.15, written by Peter Selinger 2001-2017
</metadata>
<g transform="translate(0.000000,800.000000) scale(0.100000,-0.100000)"
fill="#000000" stroke="none">
<path d="M4834 7781 c12 -5 16 -10 9 -14 -6 -4 -18 -4 -27 -1 -9 3 -16 1 -16
-5 0 -14 37 -90 54 -111 19 -23 37 -94 26 -98 -26 -9 -5 -17 41 -16 54 2 89
-19 89 -52 0 -22 45 15 78 62 27 41 24 60 -15 76 l-28 12 28 4 c16 2 35 -2 43
-9 8 -6 16 -10 17 -8 1 2 8 11 15 20 32 43 -45 109 -140 120 -33 4 -64 12 -68
18 -7 13 -40 4 -53 -13 -6 -7 -7 -4 -3 7 4 14 -1 17 -32 16 -27 0 -32 -2 -18
-8z"/>
<path d="M4890 7515 c0 -9 7 -26 15 -38 17 -26 7 -51 -15 -37 -10 7 -11 10 -2
10 15 0 16 26 0 36 -8 5 -9 2 -5 -9 5 -14 0 -13 -30 4 -20 11 -41 18 -48 15
-7 -2 -21 2 -32 9 -25 20 -33 18 -33 -5 0 -21 -15 -27 -25 -10 -3 6 -12 10
-18 10 -8 0 -7 -4 2 -9 13 -8 13 -12 1 -26 -12 -14 -12 -18 1 -26 8 -5 9 -9 4
-9 -6 0 -19 6 -30 14 -20 14 -25 15 -47 17 -7 0 -4 4 7 9 33 14 -6 11 -47 -4
-32 -12 -38 -12 -38 0 0 8 -7 14 -16 14 -8 0 -12 -4 -9 -10 3 -5 2 -10 -4 -10
-5 0 -11 4 -13 10 -1 5 -32 13 -68 17 -60 6 -64 5 -48 -10 9 -9 26 -17 37 -17
11 0 26 -6 33 -13 7 -7 25 -18 41 -24 28 -13 37 -33 14 -33 -7 0 -18 5 -25 12
-8 8 -15 8 -26 -1 -12 -10 -25 -10 -66 4 -28 9 -60 15 -70 12 -11 -3 -18 0
-17 6 1 5 -16 11 -38 13 -36 2 -37 1 -15 -8 60 -25 95 -46 92 -56 -1 -7 4 -12
10 -12 9 0 8 -4 -2 -11 -12 -8 -9 -9 12 -5 22 5 36 -2 78 -39 28 -25 46 -45
41 -45 -6 0 -25 16 -44 35 -30 31 -78 50 -62 25 9 -15 -5 -12 -50 10 -22 11
-47 19 -55 19 -8 0 1 -8 20 -17 53 -26 109 -72 104 -86 -3 -7 2 -19 11 -26 8
-7 15 -16 15 -21 0 -4 22 -31 49 -58 46 -49 50 -51 107 -53 57 -2 58 -2 11 -5
-28 -3 -45 -8 -41 -14 3 -6 -5 -7 -22 -3 -19 5 -25 4 -20 -5 4 -6 2 -11 -4
-11 -7 0 -5 -12 5 -32 15 -31 14 -32 -1 -10 -9 12 -23 22 -31 22 -11 0 -11 4
-2 21 8 17 8 20 -1 14 -14 -9 -150 -45 -165 -44 -5 0 24 13 65 29 58 22 71 30
55 35 -11 4 -29 11 -40 16 -16 8 -15 8 8 4 24 -5 27 -4 15 9 -7 7 -16 12 -21
9 -12 -7 -48 8 -42 18 4 5 2 9 -4 9 -5 0 -12 -6 -14 -12 -4 -8 -8 -4 -13 10
-4 13 -12 21 -19 18 -7 -2 -21 3 -31 12 -25 23 -132 24 -138 2 -3 -11 -4 -10
-5 3 -2 29 -29 -3 -33 -39 l-3 -29 -20 33 c-17 28 -24 33 -47 28 -16 -3 -31 0
-38 9 -7 8 -16 13 -20 10 -5 -3 -21 0 -36 6 -16 5 -25 7 -21 3 9 -9 -47 -34
-75 -34 -10 0 -16 -4 -13 -10 3 -5 -3 -10 -15 -10 -11 0 -32 -11 -46 -25 -14
-14 -31 -25 -39 -25 -16 0 -95 -69 -95 -83 0 -5 7 -6 16 -3 9 3 28 9 42 12 27
7 27 7 7 -13 -11 -11 -25 -18 -31 -16 -6 2 -35 -16 -65 -41 -63 -53 -84 -76
-69 -76 19 0 10 -44 -14 -69 -14 -15 -26 -33 -28 -41 -2 -8 -13 -25 -25 -37
-13 -12 -23 -28 -23 -35 0 -7 -7 -22 -15 -32 -19 -25 -19 -37 0 -30 22 9 18
-19 -5 -34 -29 -18 -103 -192 -113 -263 -2 -20 -9 -45 -15 -55 -10 -17 -11
-15 -12 15 0 19 -3 31 -7 28 -3 -4 -12 -2 -20 4 -9 9 -13 8 -13 0 0 -6 5 -11
10 -11 6 0 10 -7 10 -15 0 -9 -8 -14 -21 -12 -14 1 -23 -4 -25 -15 -2 -10 -6
-26 -8 -35 -3 -10 -5 -52 -5 -95 -1 -71 -2 -76 -21 -71 -21 6 -27 -6 -10 -23
8 -8 8 -19 0 -38 -5 -15 -10 -92 -10 -172 0 -97 -4 -144 -11 -144 -7 0 -9 23
-4 74 5 50 4 76 -4 80 -8 5 -12 -15 -13 -66 -1 -40 -2 -95 -4 -123 -8 -182 -1
-449 15 -560 16 -101 20 -204 11 -250 -6 -32 -8 -35 -9 -12 -1 16 -5 26 -11
22 -14 -8 -22 17 -18 52 l4 28 12 -35 c11 -33 11 -32 6 20 -2 30 -6 69 -7 87
-1 17 -6 29 -10 26 -5 -3 -7 -19 -5 -35 3 -16 2 -31 -2 -33 -7 -4 -20 99 -39
290 l-8 90 -3 -80 c-2 -44 -3 -89 -3 -100 9 -232 10 -321 3 -270 -4 33 -11
152 -15 265 -4 113 -9 208 -11 211 -2 4 1 45 7 92 12 91 4 261 -12 251 -5 -3
-9 -40 -10 -82 -1 -77 -11 -164 -24 -212 -6 -23 -5 -23 14 5 11 17 21 25 21
20 0 -6 -5 -16 -11 -22 -6 -6 -13 -59 -15 -119 -3 -59 -6 -109 -8 -111 -8 -8
-18 156 -11 179 5 16 4 20 -3 13 -6 -5 -13 -30 -16 -55 -3 -25 -12 -62 -21
-82 -8 -21 -15 -47 -15 -58 0 -12 -4 -19 -9 -15 -6 3 -14 -3 -20 -13 -16 -29
-81 -232 -81 -251 0 -21 -26 -58 -35 -50 -3 4 0 13 8 20 7 8 12 19 10 26 -2 6
3 28 11 48 9 21 16 47 16 58 0 11 8 46 19 76 23 70 39 147 46 231 7 79 20 107
30 67 4 -15 5 -36 2 -47 -3 -13 0 -20 9 -20 8 0 14 6 13 13 -2 6 3 30 9 52 16
57 25 155 11 132 -5 -9 -14 -36 -19 -60 -8 -35 -8 -31 -3 23 3 36 9 75 14 88
5 13 9 42 8 65 0 38 -1 40 -10 17 -6 -14 -8 -35 -6 -47 2 -12 1 -20 -4 -18 -4
3 -10 -5 -12 -17 -4 -22 -4 -21 -6 2 0 14 5 50 13 80 26 103 39 198 34 251 -3
30 -2 64 3 76 5 13 10 58 13 100 2 43 9 97 15 121 7 24 11 51 10 60 -1 9 1 24
4 32 25 63 47 164 38 173 -7 7 -12 5 -17 -6 -3 -9 -10 -17 -15 -17 -5 0 1 14
13 30 19 27 23 29 29 13 6 -18 14 -3 65 115 15 33 11 37 -23 33 -7 -1 -13 3
-13 9 0 6 9 10 20 8 10 -2 26 6 35 17 14 17 16 18 11 2 -3 -11 -2 -16 4 -12 6
3 10 15 10 25 0 10 7 23 15 28 9 5 22 38 30 78 20 92 18 97 -11 42 -13 -27
-26 -48 -28 -48 -7 0 29 95 42 108 18 19 15 22 -11 9 -23 -11 -32 -23 -88
-117 -126 -215 -207 -369 -185 -351 18 15 21 8 5 -20 -5 -11 -14 -17 -19 -14
-5 3 -12 0 -16 -6 -4 -8 -3 -9 4 -5 7 4 12 1 12 -6 -1 -19 -26 -49 -34 -41 -4
4 -4 1 -1 -7 3 -9 -41 -107 -98 -220 -110 -217 -171 -354 -182 -407 -3 -18
-16 -51 -27 -75 -36 -74 -108 -250 -108 -264 0 -7 -5 -16 -12 -20 -11 -7 -9
10 7 49 4 9 3 17 -2 17 -5 0 -20 -24 -33 -52 -47 -108 -55 -123 -72 -142 -10
-11 -18 -24 -18 -30 0 -22 -63 -206 -69 -202 -3 2 -7 -14 -8 -36 0 -23 -5 -43
-11 -47 -15 -9 -28 -51 -32 -101 -1 -23 -2 -23 -10 -5 -7 16 -9 12 -9 -18 -1
-23 -5 -36 -11 -32 -6 3 -10 2 -10 -4 0 -5 8 -14 18 -20 16 -9 15 -11 -5 -31
-13 -11 -22 -28 -22 -38 1 -16 2 -16 6 1 2 9 9 17 15 17 5 0 7 -7 4 -16 -3 -9
-6 -18 -6 -20 0 -2 -9 -4 -20 -4 -11 0 -20 -4 -20 -10 0 -5 7 -10 15 -10 20 0
19 -9 -14 -109 -16 -47 -32 -105 -36 -128 -4 -24 -11 -45 -15 -48 -5 -3 -6
-13 -3 -23 6 -15 5 -15 -10 -3 -15 12 -17 11 -17 -7 0 -11 6 -22 13 -25 9 -4
10 -7 0 -18 -7 -7 -13 -23 -13 -34 0 -12 -3 -25 -7 -28 -4 -4 -8 -26 -10 -49
-3 -23 -9 -51 -15 -62 -6 -10 -12 -56 -13 -100 -2 -45 -6 -104 -10 -133 -3
-29 -7 -83 -9 -121 -2 -65 -1 -68 16 -53 10 8 18 22 18 31 0 8 7 23 14 33 13
16 14 16 20 -5 3 -13 6 -35 6 -50 0 -15 4 -29 8 -32 10 -6 29 28 34 59 2 12
10 19 20 17 9 -1 24 8 33 20 16 21 17 21 12 3 -2 -11 -8 -28 -12 -38 -6 -14
-4 -16 10 -10 16 5 17 2 11 -23 -4 -16 -16 -38 -27 -50 -10 -11 -19 -29 -19
-40 0 -10 -9 -34 -20 -52 -12 -19 -16 -31 -10 -27 5 3 10 2 10 -4 0 -5 -8 -14
-17 -20 -15 -8 -18 -27 -20 -128 0 -66 -4 -142 -8 -169 l-6 -49 16 35 c9 19
21 46 26 60 8 20 12 22 19 10 8 -13 10 -12 10 2 0 9 -5 18 -11 20 -8 3 -9 16
-4 43 5 24 10 33 12 23 6 -25 15 -23 70 19 57 43 72 61 73 88 1 19 2 19 9 2 6
-16 10 -14 34 20 14 21 36 66 49 101 12 34 27 62 33 62 5 0 23 28 39 63 16 34
34 67 40 72 15 13 76 157 110 259 15 43 33 90 41 105 13 23 14 24 15 5 0 -11
-6 -43 -14 -70 -8 -27 -17 -69 -21 -94 -4 -25 -12 -50 -17 -57 -5 -7 -7 -22
-4 -35 4 -16 2 -15 -8 6 l-13 28 -20 -43 c-12 -24 -35 -75 -53 -114 -17 -38
-52 -110 -76 -158 -24 -49 -44 -91 -44 -94 0 -4 11 4 25 17 14 13 25 18 25 12
0 -7 -4 -12 -9 -12 -21 0 -63 -84 -66 -134 -2 -28 -1 -42 2 -31 12 45 19 32
12 -22 -4 -32 -10 -76 -13 -98 -2 -22 -8 -66 -12 -97 -3 -32 -11 -55 -15 -52
-5 3 -9 -9 -9 -26 0 -28 2 -31 23 -24 12 3 24 11 25 15 2 5 7 7 12 4 4 -3 22
10 38 29 27 31 31 32 35 15 3 -10 1 -19 -4 -19 -5 0 -9 -9 -9 -20 0 -24 -73
-185 -89 -194 -16 -10 -14 -39 3 -33 18 7 10 -27 -10 -44 -11 -9 -14 -7 -14
12 0 21 -3 20 -25 -14 -21 -30 -24 -41 -15 -57 9 -17 30 -20 30 -4 0 3 -5 2
-12 -2 -8 -5 -9 -2 -5 10 4 10 7 27 7 38 0 18 2 19 16 7 10 -8 14 -23 12 -41
-3 -15 -2 -28 1 -28 13 1 51 27 85 58 19 17 39 32 44 32 8 0 72 130 72 146 0
4 9 18 21 30 23 24 42 91 28 100 -9 5 51 104 64 104 4 0 7 -7 7 -15 0 -8 5
-15 11 -15 6 0 8 9 3 22 -6 21 -6 22 17 6 21 -14 24 -23 21 -64 -1 -26 -8 -57
-16 -68 -7 -12 -16 -33 -20 -48 -3 -15 -20 -57 -38 -93 -17 -36 -28 -68 -25
-72 3 -3 -3 -24 -14 -46 -14 -27 -23 -36 -29 -27 -5 8 -10 9 -14 2 -3 -6 -2
-13 4 -17 15 -10 12 -38 -4 -32 -9 4 -12 0 -9 -12 4 -18 -33 -68 -48 -64 -5 2
-9 -6 -9 -17 0 -11 -4 -20 -10 -20 -5 0 -10 -9 -10 -19 0 -11 -4 -23 -10 -26
-6 -3 -10 -12 -10 -18 0 -7 4 -6 10 3 7 11 10 11 10 2 0 -17 -45 -62 -62 -62
-9 0 -9 -3 2 -10 13 -8 12 -10 -3 -10 -14 0 -16 5 -11 25 4 15 2 25 -5 25 -6
0 -11 -7 -11 -16 0 -8 -4 -13 -9 -10 -10 6 -33 -73 -25 -86 3 -4 -2 -8 -10 -8
-9 0 -16 -4 -16 -10 0 -16 56 -12 70 5 10 12 15 13 21 4 10 -16 -7 -68 -30
-93 -11 -12 -22 -33 -25 -48 -2 -14 -9 -35 -15 -46 -17 -31 -14 -34 17 -16
l27 16 -27 -22 c-16 -12 -28 -26 -28 -31 0 -12 44 12 88 47 34 29 45 19 12
-11 -28 -25 -25 -35 10 -30 17 2 30 2 30 0 0 -6 -109 -85 -118 -85 -5 0 -29
-22 -53 -48 -24 -27 -57 -56 -74 -65 -16 -9 -23 -16 -15 -17 8 0 40 16 70 36
70 47 67 43 50 55 -13 9 -12 10 1 6 16 -5 59 25 59 41 0 4 9 9 20 10 11 1 29
3 40 4 11 1 20 8 20 15 0 7 10 13 22 13 17 0 19 -3 10 -12 -17 -17 -15 -28 6
-21 14 5 15 3 5 -8 -7 -7 -13 -22 -13 -32 0 -17 -26 -52 -96 -128 -7 -9 -14
-21 -14 -27 0 -5 -3 -12 -7 -14 -12 -5 -63 -106 -63 -123 0 -22 8 -19 37 15
14 17 27 29 30 26 9 -9 -85 -175 -99 -176 -14 0 -9 35 8 58 8 12 14 30 12 40
-2 10 -22 -21 -47 -73 -66 -134 -105 -191 -135 -199 -14 -3 -26 -13 -26 -22 0
-14 3 -14 15 -4 13 11 15 8 15 -20 0 -19 -3 -30 -7 -27 -7 8 -33 -11 -33 -24
0 -5 9 -9 20 -9 27 0 25 -7 -10 -37 -16 -13 -30 -29 -30 -34 0 -14 28 -11 33
4 3 7 6 5 6 -5 1 -10 6 -18 12 -18 6 0 -3 -12 -20 -26 -32 -27 -43 -61 -16
-50 10 3 15 -1 15 -12 0 -24 -12 -38 -37 -46 -21 -7 -22 -5 -16 45 l6 52 -27
-5 c-14 -3 -29 -1 -32 3 -7 11 -52 1 -82 -18 -13 -8 -26 -12 -30 -9 -3 3 0 6
6 6 7 0 12 6 12 13 0 13 32 37 65 49 19 7 6 6 -92 -8 -29 -5 -43 -3 -43 5 0
17 -31 13 -73 -9 -20 -11 -44 -20 -52 -20 -8 0 -15 -4 -15 -9 0 -9 -21 -20
-108 -57 -32 -14 -42 -23 -39 -36 3 -10 0 -19 -6 -20 -7 0 -16 -2 -22 -3 -5
-2 -14 -3 -20 -4 -11 -1 -85 -65 -85 -73 0 -4 28 0 62 8 34 8 66 13 72 11 6
-2 31 2 56 9 24 7 46 11 49 9 2 -3 16 2 30 11 17 12 26 14 29 5 6 -17 43 -35
40 -19 -2 8 6 12 20 10 13 -1 49 10 80 26 55 26 92 31 92 11 0 -6 -8 -9 -17
-7 -10 2 -18 -2 -18 -9 0 -6 -4 -15 -9 -20 -5 -5 -6 -3 -2 5 4 6 2 12 -3 12
-6 0 -11 -4 -11 -9 0 -5 -13 -14 -30 -20 -34 -11 -40 -36 -10 -44 27 -7 35
-33 20 -62 -11 -21 -18 -24 -49 -19 -45 7 -51 13 -23 21 l23 6 -22 15 c-19 13
-23 13 -33 1 -12 -16 -40 -16 -129 -2 -40 7 -60 6 -65 -1 -4 -6 -36 -26 -72
-45 -36 -19 -75 -43 -87 -54 -45 -41 -22 -6 27 40 28 26 50 51 50 56 0 5 -7 4
-15 -3 -10 -8 -15 -9 -15 -1 0 15 -55 3 -112 -26 -86 -43 -275 -66 -308 -37
-21 18 -151 -1 -181 -27 -12 -11 -18 -19 -13 -19 6 0 16 6 23 13 10 10 10 7 3
-13 -10 -28 -5 -53 9 -44 6 3 16 0 24 -6 8 -7 22 -10 30 -6 8 3 15 2 15 -2 0
-4 32 -7 72 -7 52 0 73 -4 76 -14 3 -10 0 -12 -12 -8 -9 4 -32 -3 -51 -14 -19
-12 -41 -19 -49 -16 -18 7 -51 -17 -43 -30 4 -6 32 -10 62 -8 30 1 55 -2 55
-6 0 -5 -7 -9 -15 -9 -7 0 -18 -8 -24 -17 -8 -15 -12 -16 -22 -6 -19 19 -59
16 -59 -3 0 -8 4 -13 9 -9 5 3 12 1 16 -4 9 -16 65 -8 65 9 0 20 57 21 69 1 6
-9 11 -10 15 -2 4 6 16 11 27 11 10 0 19 5 19 10 0 6 8 10 18 10 10 0 28 7 40
16 13 9 29 13 37 10 7 -2 15 0 17 5 2 5 12 3 23 -5 11 -8 16 -18 12 -22 -4 -5
-12 -2 -17 6 -6 9 -10 10 -10 3 0 -7 11 -25 25 -40 13 -15 25 -23 25 -16 0 7
7 10 15 7 10 -4 15 0 15 14 0 11 3 27 6 35 3 10 -1 15 -13 14 -13 -2 -17 5
-18 28 0 25 5 31 25 33 14 2 30 8 37 14 8 6 17 1 29 -17 14 -21 15 -31 5 -51
-17 -38 -15 -41 39 -54 54 -13 71 -27 49 -41 -9 -5 -15 -4 -17 5 -5 21 -47 6
-72 -27 -12 -15 -26 -25 -30 -22 -5 3 -26 -5 -47 -19 -21 -13 -49 -27 -62 -31
-21 -6 -23 -5 -18 14 3 13 0 21 -8 21 -8 0 -11 8 -8 21 6 20 4 21 -33 15 -21
-5 -40 -9 -42 -11 -1 -1 2 -15 8 -30 14 -38 4 -63 -28 -68 -26 -4 -26 -4 3 -6
17 0 36 4 42 10 14 14 34 3 27 -15 -6 -16 6 -26 40 -32 13 -2 37 -11 52 -19
16 -8 35 -15 42 -15 7 0 10 -4 7 -10 -3 -5 3 -10 13 -10 11 0 26 -8 33 -17 8
-9 9 -14 3 -10 -6 3 -26 2 -44 -3 -19 -5 -60 -11 -93 -12 -38 -1 -61 -7 -64
-15 -4 -9 -16 -12 -38 -7 -17 3 -52 0 -76 -7 -24 -6 -58 -13 -75 -15 -31 -4
-85 -18 -262 -68 -52 -14 -98 -24 -103 -20 -5 3 -9 -1 -9 -9 0 -11 -16 -17
-51 -22 -28 -4 -77 -18 -110 -31 -32 -13 -69 -24 -83 -24 -14 0 -25 -7 -28
-18 -5 -19 -81 -47 -99 -36 -6 3 -8 17 -5 30 5 19 3 24 -14 24 -11 0 -23 6
-26 14 -3 7 -27 29 -55 47 -27 19 -49 37 -49 41 0 9 -93 65 -116 70 -10 2 -19
8 -19 15 0 6 -3 15 -8 19 -4 4 -7 -12 -7 -35 0 -40 5 -48 57 -97 32 -30 62
-54 68 -54 5 0 30 -23 54 -50 25 -28 51 -50 58 -50 34 0 -1 -18 -46 -24 -28
-4 -53 -11 -56 -16 -4 -7 288 -10 820 -10 665 0 827 3 831 13 2 7 15 13 27 14
21 2 21 1 3 -13 -17 -12 337 -14 2768 -14 l2787 0 -15 28 c-21 38 -56 139 -56
162 0 10 -4 20 -9 22 -4 1 -12 14 -16 27 -5 17 -4 22 5 16 16 -10 9 34 -26
157 -13 48 -24 95 -24 105 0 50 -144 463 -162 463 -6 0 -8 -6 -5 -12 108 -259
158 -443 137 -504 -4 -10 -9 17 -13 60 -3 44 -9 82 -14 85 -8 6 -93 176 -93
187 0 3 6 2 13 -3 6 -4 -1 11 -18 32 -28 37 -37 51 -73 115 -8 14 -25 43 -38
65 -13 22 -33 58 -45 80 -38 71 -167 259 -209 304 -22 24 -40 46 -40 50 0 3
-27 24 -60 45 -33 22 -60 41 -60 43 0 11 34 -2 85 -32 32 -20 61 -33 64 -29 3
3 -11 21 -32 39 -37 33 -136 72 -187 74 -114 4 -247 0 -273 -8 -46 -13 -157
-21 -157 -10 0 5 -12 9 -27 9 l-28 1 24 13 c28 16 21 21 -39 31 l-45 7 19 -21
c19 -21 19 -21 -8 -21 -18 0 -25 4 -20 12 4 7 3 8 -5 4 -7 -5 -20 3 -32 18
-11 14 -27 26 -35 26 -8 0 -14 6 -14 14 0 8 -19 20 -44 27 -29 8 -42 17 -39
26 3 8 -2 13 -15 13 -11 0 -25 7 -32 15 -14 17 -36 20 -45 6 -7 -12 12 -29 64
-60 22 -14 38 -28 35 -32 -2 -4 9 -13 26 -21 16 -7 30 -16 30 -20 0 -3 17 -17
38 -29 20 -13 42 -27 47 -32 6 -4 19 -14 30 -22 20 -14 20 -14 -1 -15 -12 0
-38 -7 -57 -15 l-36 -15 -110 101 c-61 55 -111 102 -111 105 0 3 9 0 21 -6 11
-7 23 -9 26 -7 9 10 -38 29 -55 22 -9 -3 -13 -3 -9 1 4 4 -7 15 -23 25 -30 18
-40 39 -19 39 5 0 7 5 3 11 -5 8 -9 8 -14 -1 -10 -17 -33 -2 -26 17 3 8 2 12
-3 8 -11 -6 -67 39 -81 65 -7 13 -6 21 2 26 6 4 8 3 5 -3 -4 -7 3 -10 18 -9
14 0 25 7 25 14 0 6 7 12 16 12 8 0 12 5 9 11 -10 15 32 -10 81 -48 37 -29 84
-41 84 -21 0 4 11 8 24 8 26 0 41 31 23 49 -8 8 -6 11 6 11 9 0 17 5 17 10 0
6 -6 10 -14 10 -7 0 -20 8 -27 17 -10 11 -10 14 -1 9 6 -4 12 -5 12 -2 0 3
-20 15 -45 27 -46 22 -54 36 -33 57 10 10 23 1 63 -42 44 -47 135 -106 165
-106 5 0 10 7 10 16 0 10 -5 14 -16 10 -9 -3 -12 -2 -9 4 4 6 12 10 18 9 31
-4 40 1 28 15 -14 16 -4 45 22 67 16 13 18 19 8 37 -9 18 -9 21 3 16 8 -3 17
-1 21 5 3 6 11 11 16 11 5 0 0 -18 -11 -40 -11 -22 -17 -40 -13 -40 4 0 2 -5
-5 -12 -7 -7 -12 -21 -11 -33 1 -28 55 89 70 151 6 27 15 57 20 66 5 10 9 26
9 35 0 10 11 30 23 44 13 13 27 31 30 39 4 12 6 11 6 -2 1 -10 6 -18 12 -18 5
0 8 4 4 10 -8 13 5 60 17 60 7 0 8 -33 4 -98 -4 -53 -6 -111 -6 -128 0 -18 -8
-38 -20 -49 -11 -10 -20 -23 -20 -30 0 -7 -9 -22 -20 -35 -21 -25 -26 -50 -10
-50 6 0 10 10 10 23 0 16 3 18 9 8 7 -11 14 -10 42 5 53 29 119 84 130 108 5
11 16 32 24 46 8 14 15 40 15 59 0 29 2 32 15 21 11 -9 15 -9 15 -1 0 7 4 9
10 6 5 -3 20 16 32 42 13 26 26 50 31 51 4 2 7 8 7 14 0 5 7 16 15 24 13 14
15 14 15 0 0 -9 -5 -16 -11 -16 -6 0 -9 -6 -6 -14 3 -8 1 -17 -6 -20 -7 -2 -5
-5 5 -5 9 -1 19 5 21 12 3 6 6 2 6 -11 1 -13 6 -33 12 -44 10 -18 9 -20 -7
-14 -17 5 -17 5 -2 -7 9 -7 18 -24 21 -37 3 -14 5 3 4 38 0 35 -6 84 -12 110
-14 52 -10 155 5 160 6 2 8 7 6 10 -4 8 11 212 19 260 4 23 3 32 -4 27 -7 -4
-11 6 -10 27 1 21 3 26 6 13 5 -17 39 -55 49 -55 11 0 -33 95 -50 109 -11 9
-12 19 -3 46 14 48 26 44 20 -6 -5 -36 -2 -44 24 -68 24 -22 31 -38 36 -84 4
-46 3 -57 -9 -57 -11 0 -13 -4 -6 -16 5 -9 7 -25 5 -35 -3 -11 0 -19 6 -19 6
0 8 -11 5 -29 -4 -19 0 -38 10 -52 9 -13 16 -38 16 -57 0 -20 4 -31 10 -27 6
3 10 14 10 24 0 22 47 23 60 1 14 -22 11 -38 -3 -18 -11 14 -16 6 -34 -55 -32
-110 -36 -130 -22 -121 9 5 10 2 4 -12 -4 -10 -7 -27 -7 -36 0 -9 -6 -22 -13
-28 -8 -7 -17 -27 -21 -46 -3 -19 -10 -31 -15 -28 -5 3 -9 0 -9 -5 0 -18 -18
-12 -23 7 -2 9 -4 2 -4 -15 0 -18 4 -33 8 -33 4 0 37 28 72 63 70 70 112 133
121 187 7 35 7 35 -8 10 -15 -24 -15 -24 -17 30 -3 108 -14 146 -51 181 -10 9
-18 21 -18 28 0 6 -4 11 -9 11 -5 0 -11 7 -15 15 -8 23 1 18 34 -16 16 -18 30
-28 30 -24 0 4 7 2 15 -5 12 -10 18 -10 30 0 8 7 13 15 11 19 -2 3 2 17 10 31
l14 25 7 -25 c7 -23 8 -22 16 15 4 22 11 56 14 75 3 19 10 41 15 48 7 8 7 12
-1 12 -6 0 -11 7 -11 15 0 21 17 19 30 -5 7 -14 7 -20 0 -20 -6 0 -10 -30 -11
-72 0 -40 -4 -95 -10 -123 -21 -113 -22 -128 -11 -121 7 4 12 15 12 26 0 10 6
20 14 23 16 6 39 67 25 67 -5 0 -9 10 -9 21 0 17 3 19 14 10 11 -9 15 -5 18
26 4 28 -1 48 -19 75 -26 43 -30 56 -8 34 8 -8 15 -19 15 -25 0 -6 5 -11 11
-11 6 0 8 8 5 18 -3 9 -8 32 -11 51 -5 30 -19 61 -45 101 -6 8 -15 26 -20 40
-21 49 -60 101 -147 195 -7 8 -13 20 -13 28 0 8 -11 34 -24 58 -45 81 -130
312 -123 333 2 6 7 -4 11 -21 4 -18 12 -35 17 -38 5 -4 9 -17 9 -31 0 -13 5
-24 10 -24 6 0 10 -7 10 -16 0 -9 5 -12 12 -8 8 5 9 2 5 -9 -8 -20 7 -56 44
-112 14 -22 41 -66 59 -97 35 -59 50 -69 32 -21 -12 33 -19 54 -21 68 -1 6 -8
20 -16 32 -8 12 -16 52 -18 90 -3 37 -16 104 -31 148 -14 44 -26 88 -26 97 0
10 -4 26 -9 36 -9 18 -27 127 -36 222 -3 39 -2 48 4 30 5 -14 9 -38 10 -54 1
-36 22 -106 31 -106 4 0 3 21 -1 48 -9 53 -10 94 -2 75 7 -18 23 -16 23 2 0 9
6 18 14 21 20 8 18 62 -2 60 -11 -1 -15 13 -18 54 -1 30 -7 56 -12 58 -6 2 -8
12 -5 22 3 12 0 20 -6 20 -7 0 -10 4 -7 8 3 5 -2 31 -10 57 -8 27 -13 64 -12
83 1 18 -3 37 -10 41 -7 4 -15 30 -18 57 -7 64 -14 69 -14 10 0 -59 -15 -52
-25 11 -4 27 -11 56 -17 66 -13 25 0 77 19 77 11 0 14 6 9 23 -3 12 -6 28 -6
35 0 22 -16 13 -27 -15 l-11 -28 -1 37 c-1 20 4 40 9 43 6 3 10 16 9 28 0 21
-1 21 -9 2 -6 -15 -9 -6 -10 35 -4 105 1 225 10 260 5 19 11 76 14 125 4 68 3
80 -4 50 -19 -81 -32 -171 -31 -205 1 -19 -1 -64 -5 -100 -7 -62 -8 -63 -16
-30 -4 19 -9 76 -11 125 -1 50 -6 96 -11 103 -4 8 -5 64 -2 125 5 102 4 109
-9 81 -19 -43 -115 -191 -115 -179 0 6 4 25 9 43 6 18 6 30 1 27 -5 -3 -12 4
-15 16 -5 15 -2 25 9 31 9 5 16 17 16 26 0 15 -2 15 -10 2 -7 -11 -8 -5 -4 20
7 42 24 90 37 108 5 7 11 30 13 51 2 22 9 52 15 68 7 15 11 35 10 44 -1 9 7
37 19 63 21 49 26 81 12 72 -21 -13 -32 18 -41 119 -6 61 -11 122 -11 137 0
15 -4 29 -10 33 -5 3 -10 17 -10 30 0 13 -4 25 -8 27 -12 4 -23 78 -11 78 5 0
9 5 9 10 0 6 -8 10 -17 8 -12 -2 -19 4 -21 18 -2 11 -19 30 -40 42 -20 12 -30
22 -21 22 8 0 20 -5 27 -12 9 -9 12 -5 12 20 0 21 -5 32 -14 32 -8 0 -24 12
-36 27 -25 32 -75 64 -85 55 -4 -4 -6 0 -3 8 3 8 12 14 22 12 31 -6 15 17 -40
57 -45 33 -62 39 -83 34 -14 -4 -37 -7 -51 -6 -36 2 -102 -16 -95 -27 7 -12
-10 -21 -27 -15 -21 9 -59 73 -47 80 6 4 4 12 -7 19 -15 12 -15 13 0 19 25 10
20 45 -6 49 -18 2 -23 10 -23 33 0 17 3 35 7 41 6 8 -3 14 -24 18 -26 5 -30 9
-18 16 13 9 13 11 0 20 -11 7 -11 10 -2 10 28 0 -1 20 -31 21 -18 1 -25 3 -16
6 9 2 19 16 22 31 6 27 -18 57 -69 88 -18 10 -18 12 -1 37 21 32 21 37 2 37
-8 0 -15 4 -15 10 0 5 -8 6 -17 3 -12 -5 -15 -2 -10 8 65 151 71 170 57 179
-12 8 -12 10 4 10 13 0 17 5 13 20 -3 11 -1 20 4 20 5 0 9 7 9 15 0 9 -6 12
-17 9 -17 -5 -17 -5 0 9 21 18 24 103 3 133 -8 11 -16 31 -19 44 -3 19 -5 17
-6 -10 0 -20 4 -41 10 -47 6 -6 9 -19 6 -29 -4 -16 -5 -15 -6 4 -1 29 -21 29
-21 -2 0 -12 -4 -36 -9 -52 -5 -16 -19 -65 -32 -109 -13 -44 -31 -93 -41 -110
-24 -40 -23 -14 1 33 24 49 54 186 46 214 -4 13 -3 18 2 11 4 -6 9 39 10 100
1 62 0 106 -3 100 -10 -24 -21 -13 -16 17 3 18 0 30 -7 30 -9 0 -17 -54 -12
-83 2 -12 -27 -203 -38 -248 -11 -47 -42 -131 -53 -144 -5 -5 -2 10 7 34 22
63 18 73 -10 20 -13 -25 -31 -51 -39 -58 -18 -15 -21 -4 -6 19 6 9 5 17 -3 22
-9 6 -9 12 0 26 6 11 14 37 17 58 3 22 3 32 0 24 -4 -8 -15 -27 -25 -41 -10
-14 -16 -29 -14 -33 3 -3 2 -4 -2 -1 -3 3 -12 -3 -20 -13 -13 -15 -13 -14 -9
13 3 17 8 48 11 70 5 35 4 37 -6 18 -14 -26 -29 -30 -29 -8 0 8 -4 15 -10 15
-5 0 -10 -5 -10 -11 0 -7 -10 -27 -21 -46 -16 -25 -24 -31 -30 -22 -4 7 -4 18
0 24 5 5 10 20 13 31 5 18 -1 16 -33 -15 -22 -20 -39 -42 -39 -48 0 -7 -4 -13
-10 -13 -5 0 -10 5 -10 12 0 6 -9 3 -20 -7 -30 -27 -24 -6 15 55 40 63 46 91
13 60 -26 -24 -46 -27 -27 -3 13 15 11 16 -18 10 -18 -4 -32 -3 -32 1 4 24 -5
29 -51 27 -46 -2 -49 0 -46 19 3 17 -2 21 -22 23 -19 1 -21 -1 -11 -8 9 -7 0
-8 -26 -3 -38 6 -39 5 -20 -10 19 -15 18 -15 -27 -16 -38 0 -48 -3 -48 -17 0
-9 -3 -14 -6 -10 -4 3 -3 18 0 34 6 20 10 23 16 13 7 -11 11 -11 24 2 8 9 12
19 8 23 -4 5 -2 5 4 2 6 -4 22 5 34 18 14 15 18 25 11 25 -7 0 27 41 76 90 80
82 127 150 104 150 -17 0 -80 -82 -74 -96 3 -8 1 -14 -5 -12 -6 2 -32 -19 -57
-47 l-46 -50 42 62 c36 52 40 64 29 78 -7 8 -16 15 -21 15 -10 0 -59 -93 -59
-112 0 -7 -14 -33 -31 -58 -39 -57 -30 -27 27 96 24 52 39 94 33 94 -6 0 -8 7
-5 16 3 8 2 12 -4 9 -6 -3 -10 -1 -10 4 0 6 -7 11 -15 11 -8 0 -15 -7 -15 -15z
m-20 -795 c11 -11 26 -20 33 -20 8 0 28 -7 46 -16 18 -9 64 -24 104 -34 40
-10 80 -21 90 -25 11 -5 25 -1 36 9 16 15 19 15 41 -4 13 -11 30 -20 39 -20 9
0 22 -13 29 -30 7 -16 23 -32 35 -36 21 -7 21 -7 2 -14 -19 -7 -19 -7 3 -14
12 -4 22 -14 22 -22 0 -8 7 -14 15 -14 8 0 15 -7 15 -15 0 -9 11 -20 23 -24
29 -11 92 -67 92 -82 0 -5 11 -15 25 -22 14 -7 26 -18 26 -25 1 -7 2 -17 3
-22 0 -6 29 -38 62 -70 34 -33 58 -60 53 -60 -4 0 4 -13 19 -28 21 -22 24 -31
15 -40 -9 -9 -6 -12 15 -12 22 0 27 -5 33 -35 4 -21 10 -32 17 -28 7 4 8 -10
4 -45 -4 -34 -2 -52 5 -54 7 -3 9 -12 4 -24 -6 -12 -10 -15 -13 -6 -3 6 -9 12
-14 12 -6 0 -7 -6 -2 -12 4 -7 15 -33 24 -58 11 -30 21 -45 32 -44 10 1 17 -4
17 -12 0 -8 -4 -14 -10 -14 -5 0 -10 -8 -10 -17 0 -10 -9 -33 -20 -51 -19 -32
-23 -33 -60 -27 -24 4 -40 3 -40 -3 0 -12 24 -22 51 -22 25 0 25 -17 0 -25
-12 -4 -18 -12 -14 -21 10 -27 -17 -74 -43 -74 -16 0 -22 -5 -18 -14 7 -17 48
-36 79 -36 31 0 33 -20 3 -21 -14 -1 -17 -3 -8 -5 11 -3 15 -14 12 -37 -3 -26
3 -40 27 -66 17 -18 31 -39 31 -46 0 -7 9 -15 20 -18 11 -3 20 -14 20 -24 0
-10 9 -27 21 -36 11 -10 18 -24 15 -32 -3 -8 0 -15 6 -17 19 -7 0 -38 -22 -38
-12 0 -19 -4 -16 -9 9 -13 -64 -21 -114 -11 -25 4 -48 6 -52 4 -4 -3 -5 2 -2
10 7 18 -9 21 -36 6 -13 -7 -27 -6 -44 2 -19 8 -32 8 -48 0 -21 -10 -22 -11
-3 -12 16 0 17 -2 5 -9 -8 -5 -31 -8 -50 -6 -46 4 -120 -14 -127 -31 -3 -8
-10 -11 -16 -7 -6 4 -8 -1 -5 -14 4 -16 2 -19 -13 -16 -23 6 -24 -3 -2 -25 12
-12 18 -13 21 -4 4 14 32 16 32 2 0 -5 -5 -10 -11 -10 -5 0 -7 -4 -4 -10 9
-15 25 -12 25 5 0 9 9 15 21 15 18 0 19 -2 9 -15 -14 -17 -12 -18 47 -15 28 1
44 -4 50 -14 4 -8 28 -20 53 -26 57 -14 52 -14 140 0 41 6 90 14 108 17 27 3
31 7 22 18 -15 18 3 29 36 21 23 -6 29 -19 26 -61 -2 -18 5 -21 55 -23 67 -4
72 -6 70 -32 -1 -12 -8 -20 -20 -20 -32 0 -7 -20 33 -26 33 -5 39 -10 43 -38
7 -47 -2 -125 -19 -157 -8 -15 -14 -37 -14 -49 0 -27 -27 -80 -41 -80 -6 0 -7
-6 -1 -16 11 -19 4 -54 -9 -54 -5 0 -9 5 -9 10 0 6 -12 8 -27 5 l-28 -5 25 12
c18 9 24 20 22 36 -3 21 -16 30 -67 47 -15 5 -16 8 -6 14 15 10 9 51 -12 73
-6 7 -18 25 -25 39 -8 14 -34 47 -58 73 -24 26 -44 56 -44 66 0 11 -10 20 -25
24 -16 4 -22 11 -19 21 7 18 0 19 -25 3 -15 -9 -22 -8 -35 5 -14 13 -37 16
-122 16 -57 -1 -107 -5 -110 -10 -3 -5 -20 -9 -39 -9 -32 0 -115 -25 -175 -53
-14 -6 -46 -28 -71 -49 -26 -21 -52 -38 -58 -38 -6 0 -11 -7 -11 -16 0 -11 -6
-13 -19 -9 -14 4 -30 -7 -63 -45 -23 -27 -50 -50 -58 -50 -8 0 -28 9 -45 20
-16 11 -46 20 -65 20 -32 -1 -34 -2 -16 -15 13 -10 24 -11 37 -4 16 8 19 6 19
-11 0 -13 -7 -20 -19 -20 -11 0 -23 -5 -26 -11 -8 -13 16 -99 28 -99 4 0 7
-17 5 -37 -3 -34 -6 -38 -32 -41 -16 -2 -35 -10 -43 -18 -12 -11 -10 -14 13
-20 19 -5 29 -2 36 10 19 33 48 13 48 -35 0 -10 4 -19 9 -19 5 0 13 -9 16 -20
3 -11 14 -20 24 -20 19 0 71 -100 71 -137 0 -11 9 -30 20 -43 11 -12 17 -26
14 -31 -2 -4 1 -18 8 -29 11 -17 11 -22 -2 -30 -23 -15 -30 -12 -30 10 0 29
-18 25 -26 -5 -6 -25 -40 -52 -52 -41 -3 3 0 22 6 42 8 26 8 34 -1 31 -20 -6
-30 -67 -14 -86 8 -9 18 -26 21 -38 4 -13 15 -23 24 -23 9 0 24 -15 32 -33 11
-24 20 -31 38 -29 19 3 22 -1 22 -33 0 -34 23 -74 33 -58 9 15 -32 146 -47
155 -21 12 -23 98 -2 98 8 0 23 3 33 6 13 4 15 3 4 -4 -18 -13 3 -52 29 -52
19 0 36 -32 26 -49 -3 -5 1 -14 8 -21 8 -6 18 -25 21 -41 4 -16 11 -31 16 -34
5 -4 9 -19 9 -34 0 -15 5 -32 11 -38 8 -8 8 -13 0 -17 -6 -4 -11 -2 -11 3 0 6
-4 11 -9 11 -5 0 -9 -16 -8 -35 1 -33 17 -52 17 -20 0 8 3 15 8 15 10 0 2 -82
-9 -94 -5 -6 -9 -17 -8 -25 0 -9 5 -5 10 9 10 24 11 25 25 5 8 -11 11 -26 8
-35 -4 -8 -6 -24 -6 -35 1 -18 0 -19 -9 -2 -15 25 -32 10 -25 -22 5 -17 4 -22
-3 -12 -7 11 -10 9 -16 -9 -4 -13 -18 -35 -31 -49 -13 -14 -24 -29 -24 -32 0
-8 -60 -33 -130 -55 -30 -9 -62 -22 -70 -29 -19 -16 -109 -55 -126 -55 -17 0
-18 -17 -1 -23 16 -6 -37 -27 -69 -27 -13 0 -24 -4 -24 -9 0 -5 -11 -11 -25
-13 -18 -4 -25 -1 -26 11 -1 13 -2 13 -6 -1 -2 -10 -10 -18 -18 -18 -7 0 -15
-7 -19 -15 -3 -8 -15 -15 -26 -15 -23 0 -26 -21 -8 -50 10 -15 10 -26 0 -53
-18 -51 -15 -83 14 -112 14 -14 23 -29 19 -34 -3 -5 5 -17 17 -25 19 -14 20
-16 4 -22 -10 -4 -34 -1 -54 5 -30 10 -94 10 -164 2 -4 -1 -14 -8 -23 -17 -13
-14 -21 -15 -41 -5 -16 7 -31 7 -42 2 -27 -15 -55 -24 -87 -28 -16 -3 -34 -9
-39 -14 -6 -5 -22 -9 -38 -9 -31 0 -78 -19 -78 -32 0 -10 -74 -8 -91 3 -19 12
-81 -40 -77 -65 2 -16 11 -22 38 -24 42 -3 90 -21 90 -33 0 -5 11 -9 25 -9 14
0 28 -7 31 -15 4 -8 16 -15 29 -15 13 0 30 -10 39 -25 18 -27 21 -26 71 23 13
13 36 24 52 25 22 2 29 -3 31 -21 2 -12 8 -19 14 -16 7 4 8 -5 3 -27 -7 -31
-6 -32 9 -20 11 9 15 23 12 37 -4 13 0 27 9 34 25 20 20 -71 -5 -101 -10 -13
-19 -19 -20 -13 0 7 -11 11 -25 10 -29 -1 -29 -1 -14 -28 8 -15 17 -18 35 -14
17 5 24 2 24 -8 0 -8 9 -17 19 -21 10 -3 21 -15 24 -25 3 -13 14 -20 29 -20
13 0 28 -4 34 -8 5 -5 29 -15 54 -23 54 -17 337 -15 385 2 57 21 156 74 172
91 9 10 20 18 26 18 5 0 47 32 93 71 78 66 104 77 104 43 0 -20 28 -18 38 4 4
9 8 34 7 56 0 62 -14 66 -276 70 -114 2 -213 8 -220 12 -7 4 -15 2 -17 -4 -5
-15 -42 -16 -42 -1 0 10 -15 7 -60 -9 -12 -5 -11 -2 2 11 9 9 29 17 45 17 l28
1 -25 14 -25 14 33 1 c17 0 32 -5 32 -11 0 -5 5 -7 11 -3 6 3 22 0 37 -7 20
-11 26 -11 29 -1 3 6 9 10 13 7 5 -3 18 4 29 16 11 12 24 18 30 14 6 -3 11 -2
11 4 0 17 -70 34 -112 27 -34 -6 -39 -4 -36 11 5 25 45 43 96 43 26 0 41 4 37
10 -3 6 1 10 9 10 9 0 16 -4 16 -10 0 -17 42 -34 50 -20 4 7 24 12 44 13 20 0
35 6 34 11 0 6 2 19 6 28 7 15 11 16 29 4 38 -24 147 3 147 36 0 12 52 57 68
58 6 0 12 7 12 15 0 8 -6 15 -12 16 -10 0 -10 2 0 6 6 2 12 10 12 17 0 7 9 21
20 31 11 10 20 25 20 32 0 8 -9 17 -20 20 -11 3 -20 9 -20 13 0 5 9 12 20 15
11 3 20 13 20 21 0 8 5 14 11 14 6 0 9 5 7 12 -2 6 7 23 20 37 l24 26 -28 6
c-16 4 -21 7 -11 8 9 0 17 8 17 16 0 9 9 15 21 15 18 0 20 4 14 33 -10 42 -12
45 -49 68 l-31 19 40 0 c29 0 44 5 53 20 7 11 23 20 37 20 31 0 33 18 3 30
-23 9 -23 9 2 11 17 1 20 3 8 6 -18 5 -26 33 -9 33 5 0 22 -7 37 -15 33 -17
49 0 18 19 -17 9 -14 12 21 16 37 5 40 8 40 35 0 22 5 31 20 33 11 2 39 24 63
48 24 24 48 44 53 44 5 0 9 5 9 10 0 6 -5 10 -11 10 -6 0 -9 8 -7 18 2 9 12
17 23 17 16 0 21 8 23 38 2 26 7 37 16 34 7 -3 19 -1 27 4 11 7 12 12 1 29
-11 18 -10 20 19 20 26 0 29 3 24 20 -3 11 -2 20 3 20 6 0 12 -6 14 -12 3 -7
13 0 24 17 10 16 29 39 41 52 13 12 24 32 25 45 0 13 4 3 8 -22 l7 -45 2 40
c2 64 19 75 17 12 -1 -34 3 -53 10 -50 11 4 5 -68 -19 -207 -16 -89 -33 -161
-93 -375 -40 -144 -47 -173 -64 -260 -6 -33 -16 -64 -21 -70 -15 -15 -10 -28
6 -15 20 17 30 6 11 -12 -20 -21 -60 -152 -46 -156 14 -5 13 -33 -1 -29 -12 2
-49 -101 -49 -135 0 -10 -4 -18 -10 -18 -5 0 -10 -7 -10 -15 0 -8 -4 -23 -10
-33 -5 -9 -35 -69 -66 -132 -30 -63 -59 -117 -63 -120 -7 -4 -44 -65 -87 -141
-7 -12 -16 -25 -22 -31 -6 -6 -8 -17 -5 -24 3 -10 0 -12 -10 -9 -8 4 -17 0
-20 -7 -2 -7 -47 -69 -98 -138 -52 -69 -96 -130 -99 -137 -21 -47 -172 -201
-254 -258 -31 -21 -56 -45 -56 -52 0 -8 -4 -12 -10 -8 -5 3 -17 1 -27 -4 -10
-5 -32 -15 -49 -22 -23 -9 -30 -18 -26 -31 2 -10 -1 -18 -7 -18 -6 0 -11 8
-11 17 0 16 -1 16 -17 0 -16 -15 -16 -19 -3 -27 12 -8 12 -10 -3 -16 -9 -3
-17 -12 -17 -20 0 -8 -5 -14 -12 -14 -19 0 -47 -31 -41 -46 4 -12 -7 -18 -29
-15 -4 0 -18 -13 -32 -29 -13 -17 -29 -30 -35 -30 -5 0 -12 -6 -15 -12 -5 -10
-7 -10 -12 0 -3 6 -23 12 -45 12 -37 0 -38 1 -27 20 7 11 18 20 25 20 7 0 13
11 13 25 0 13 7 28 16 33 12 7 13 10 2 19 -7 6 -22 13 -33 16 -11 2 -1 5 23 6
23 0 42 6 42 11 0 6 -6 10 -12 11 -7 0 -47 5 -88 10 -41 6 -112 11 -157 12
-44 1 -79 5 -76 10 2 4 -12 7 -31 7 -20 0 -36 5 -36 10 0 6 -9 10 -21 10 -11
0 -29 5 -40 10 -15 8 -19 7 -19 -5 0 -9 9 -15 24 -15 44 0 38 -19 -6 -22 -34
-2 -44 -7 -47 -23 -5 -29 -18 -34 -77 -28 -51 6 -52 5 -59 -25 -8 -39 -60 -68
-82 -46 -8 8 -28 14 -44 14 -16 0 -29 5 -29 10 0 6 -9 10 -21 10 -11 0 -17 5
-14 10 4 6 -5 10 -19 10 -16 0 -26 6 -26 14 0 8 -9 18 -20 21 -11 4 -28 17
-36 31 -9 13 -20 21 -25 18 -17 -10 -74 15 -94 42 -27 36 -74 59 -89 44 -8 -8
-7 -15 7 -24 18 -14 24 -46 7 -46 -5 0 -10 5 -10 10 0 6 -7 10 -15 10 -8 0
-15 -7 -15 -15 0 -23 -36 -36 -116 -42 -41 -3 -74 -10 -74 -14 0 -5 -9 -9 -20
-9 -11 0 -20 -4 -20 -10 0 -5 -8 -10 -19 -10 -10 0 -24 -7 -32 -16 -10 -13
-10 -17 1 -24 8 -5 11 -12 7 -17 -5 -4 -11 -3 -15 2 -15 21 -72 50 -114 59
-39 9 -120 97 -159 174 l-34 67 0 178 c0 122 4 180 11 185 11 7 31 185 25 225
-1 9 2 17 7 17 5 0 13 -21 18 -47 5 -27 11 -46 14 -44 3 2 15 -1 26 -7 18 -10
28 -8 55 11 32 22 34 26 34 84 0 42 4 59 12 56 6 -3 17 6 24 19 6 13 18 27 25
31 17 9 19 37 3 37 -6 0 -8 9 -4 20 4 13 1 22 -8 26 -9 3 -18 17 -22 32 -3 14
-15 38 -26 53 -10 15 -19 34 -19 42 0 9 -4 18 -9 21 -5 3 -18 26 -29 50 -16
33 -22 73 -27 168 l-6 124 40 84 c29 61 46 116 63 206 13 68 26 124 29 124 4
0 9 -17 13 -37 8 -46 37 -106 51 -105 6 0 13 11 16 24 6 21 7 21 11 -7 4 -25
5 -24 4 8 -1 20 2 37 6 37 5 0 8 -9 8 -20 0 -11 5 -20 10 -20 10 0 13 22 10
80 -1 23 2 31 8 25 18 -18 30 -79 31 -149 0 -40 5 -72 12 -76 13 -9 14 -48 4
-211 -6 -91 -5 -128 4 -133 8 -5 11 7 11 41 0 79 10 216 15 221 3 3 4 -52 2
-121 -1 -70 0 -127 3 -127 13 0 32 189 37 370 5 188 -3 300 -36 511 -5 31 -6
91 -2 135 5 69 9 80 29 89 12 5 22 13 22 17 0 5 8 8 18 8 10 0 23 5 30 12 9 9
15 9 24 0 9 -9 8 -12 -6 -12 -34 0 -12 -35 32 -50 30 -10 41 -19 37 -29 -3 -9
-3 -12 1 -8 4 4 13 -1 21 -11 12 -16 14 -16 27 1 7 9 18 17 25 17 14 0 14 -2
1 -36 -6 -15 -8 -35 -4 -43 5 -11 9 -4 13 22 6 36 7 37 26 24 15 -12 17 -18 7
-29 -6 -8 -9 -18 -5 -21 3 -4 -2 -9 -11 -13 -20 -8 -21 -34 -2 -34 8 0 16 7
20 15 3 8 15 15 26 15 15 0 20 -7 20 -29 0 -16 -5 -31 -11 -33 -5 -2 -7 -11
-4 -20 4 -9 12 -15 19 -12 19 7 76 -44 69 -61 -3 -8 0 -15 6 -15 6 0 11 -15
11 -34 0 -18 7 -39 15 -46 13 -11 15 -8 15 19 0 17 5 31 11 31 8 0 9 -15 5
-45 -6 -34 -4 -49 8 -61 9 -8 16 -12 16 -8 0 3 6 1 13 -5 8 -6 17 -8 20 -4 12
12 7 22 -14 28 -17 6 -19 9 -8 16 8 5 26 9 42 9 16 0 27 5 27 14 0 19 37 27
51 10 15 -18 -5 -44 -29 -37 -11 3 -23 -6 -35 -26 l-18 -31 26 0 c17 0 25 -4
22 -12 -2 -7 -10 -12 -16 -10 -6 1 -17 3 -23 5 -7 1 -14 -8 -16 -20 -3 -17 2
-23 16 -23 11 0 22 6 25 13 4 10 7 10 18 0 16 -15 59 -17 59 -3 0 6 6 10 13
10 24 0 47 34 40 59 -4 16 -1 26 11 33 20 11 21 28 1 28 -20 0 -19 17 3 29 16
10 16 10 -1 11 -16 0 -18 8 -16 53 3 48 -11 93 -33 108 -10 7 0 39 13 39 5 0
9 -9 9 -20 0 -11 5 -20 10 -20 6 0 10 24 10 54 0 30 5 58 10 61 6 3 10 -3 10
-14 0 -12 5 -21 10 -21 6 0 10 23 10 50 0 30 4 50 11 50 8 0 9 13 5 39 -4 25
-2 42 5 47 7 4 8 20 4 41 -6 32 -4 34 17 31 16 -2 26 4 35 23 7 14 24 38 38
53 14 15 25 31 25 37 0 5 5 9 10 9 6 0 10 7 10 15 0 8 4 15 8 15 5 0 30 20 56
45 27 25 52 42 57 39 5 -3 7 -9 4 -14 -8 -13 9 -20 25 -9 10 6 11 9 3 9 -7 0
-13 5 -13 10 0 6 9 10 19 10 11 0 23 9 26 20 3 11 13 20 21 20 18 0 18 30 -1
147 -10 64 -23 103 -40 129 -14 20 -25 42 -25 49 0 6 -13 25 -30 41 -16 16
-30 34 -30 39 0 11 -60 84 -102 125 -35 34 -135 83 -154 76 -8 -3 -13 -2 -10
3 3 5 -9 11 -27 14 -81 14 -112 23 -110 32 2 6 -22 9 -60 6 -117 -6 -127 -6
-127 1 0 4 -15 15 -32 24 -49 26 -75 64 -42 64 8 0 13 -3 10 -8 -2 -4 33 -6
77 -5 78 1 157 -13 157 -29 0 -12 38 -9 46 3 3 6 17 8 31 4 20 -5 24 -3 20 9
-9 24 19 20 42 -5 14 -16 25 -19 38 -13 10 5 36 9 58 9 l40 0 0 45 c1 25 4 50
8 56 3 6 -2 19 -12 28 -14 13 -34 16 -82 14 -60 -3 -62 -4 -45 -21 25 -24 12
-33 -18 -13 -14 9 -32 16 -41 16 -8 0 -15 6 -15 14 0 9 -17 15 -47 19 -41 5
-50 2 -65 -16 -14 -18 -19 -20 -29 -9 -7 6 -24 12 -37 12 -15 0 -22 5 -19 13
2 6 15 12 29 12 17 -1 24 4 21 13 -4 8 -12 10 -22 6 -9 -4 -50 -9 -92 -10 -67
-3 -76 -1 -75 14 1 13 -9 18 -47 20 -38 3 -47 6 -45 20 2 11 -5 18 -19 20 -14
2 -23 10 -23 21 0 19 48 51 68 44 7 -3 12 3 12 14 0 24 19 43 42 43 10 0 18 4
18 9 0 5 9 13 20 16 13 4 20 15 20 31 0 17 6 24 18 24 13 0 23 13 33 43 15 47
38 79 51 71 4 -3 8 0 8 5 0 6 -12 11 -27 11 -24 1 -26 2 -10 11 9 5 21 7 27 4
5 -3 14 4 20 15 14 27 -2 50 -36 50 -13 0 -24 5 -24 10 0 6 7 10 15 10 8 0 15
5 15 10 0 6 -7 10 -15 10 -22 0 -18 27 5 33 28 7 30 87 3 87 -20 0 -46 47 -32
56 5 3 9 -1 9 -8 0 -9 3 -9 8 -2 4 6 16 14 27 18 20 8 20 8 -1 16 -25 10 -29
15 -37 50 -5 20 -1 28 16 35 15 7 21 18 20 33 -2 16 7 28 32 44 19 13 35 28
35 34 0 6 10 19 23 27 l22 16 -22 0 c-13 1 -23 6 -23 12 0 6 7 8 15 5 10 -4
19 3 25 19 6 16 15 23 24 19 10 -4 24 9 41 35 15 22 37 43 49 47 11 3 29 13
38 21 9 8 22 12 27 8 6 -3 11 1 11 9 0 25 40 57 59 46 14 -7 20 -1 34 31 13
29 23 39 40 39 13 0 32 9 42 20 10 11 25 20 34 20 9 0 22 9 29 20 10 16 16 18
32 10 14 -7 22 -6 34 5 8 8 22 15 30 15 9 0 16 4 16 9 0 5 11 11 25 13 13 3
22 1 19 -3 -9 -15 14 -10 30 6 13 14 22 14 58 3 32 -9 42 -10 46 0 5 16 29 15
35 0 3 -7 6 6 6 30 1 23 6 42 11 42 6 0 10 -6 10 -14 0 -7 9 -16 20 -19 11 -3
20 -2 20 2 0 3 9 12 21 19 15 10 24 10 34 2 11 -9 19 -7 36 9 28 26 34 26 59
1z m940 -2405 c0 -7 -7 -16 -16 -19 -15 -6 -15 -8 -1 -24 21 -23 11 -61 -17
-67 -11 -3 -41 -9 -66 -14 -38 -8 -41 -10 -22 -16 40 -13 19 -35 -34 -35 -28
0 -30 7 -7 32 15 17 14 18 -18 20 -19 0 -42 0 -52 0 -9 -1 -39 11 -64 28 -38
23 -44 30 -30 35 9 4 17 14 17 22 0 11 8 14 31 11 18 -3 33 0 35 7 3 6 25 10
57 9 68 -3 109 5 100 20 -4 6 1 4 11 -4 17 -13 20 -13 34 8 11 17 18 20 28 11
8 -6 14 -17 14 -24z m-2909 -699 c-6 -28 -15 -80 -22 -116 -21 -119 -89 -310
-110 -310 -5 0 -9 24 -8 55 1 30 6 55 11 55 4 0 8 12 8 26 0 16 11 37 29 53
32 29 50 90 72 245 10 69 14 84 21 66 5 -14 4 -45 -1 -74z m3383 -1062 c18
-63 14 -207 -6 -227 -9 -10 -14 -25 -11 -37 6 -22 -14 -53 -28 -44 -13 8 -11
42 4 47 6 3 2 6 -10 6 -25 1 -28 12 -14 39 6 11 4 37 -6 72 -18 65 -18 84 -2
123 10 24 14 26 21 13 5 -9 10 -35 10 -58 0 -31 3 -37 10 -25 5 10 7 21 4 25
-3 5 -8 34 -11 66 -6 53 -5 57 11 48 10 -5 22 -27 28 -48z m-4333 -1621 c30
-14 37 -22 32 -38 -7 -28 -14 -33 -43 -37 -27 -4 -100 -71 -100 -92 0 -8 -7
-19 -16 -27 -8 -7 -13 -21 -11 -31 3 -11 -3 -24 -16 -33 -12 -8 -17 -15 -12
-15 5 0 0 -7 -11 -15 -10 -8 -15 -15 -10 -15 12 0 -41 -41 -57 -44 -6 -1 -30
-8 -51 -15 -34 -12 -41 -12 -51 2 -6 8 -27 17 -46 19 -34 3 -34 3 -11 16 20
11 35 12 88 1 53 -10 68 -10 89 1 29 15 28 36 -1 33 -14 -1 -12 4 11 20 16 12
35 29 42 37 7 8 22 25 32 37 11 12 17 24 14 27 -7 7 68 106 82 107 5 1 16 2
24 3 26 2 23 25 -3 32 -17 4 -26 13 -26 25 0 23 4 23 51 2z m-204 -73 c34 -21
51 -68 39 -114 -21 -84 -215 -104 -256 -27 -24 45 0 109 53 141 43 26 121 26
164 0z m-97 -595 c-25 -26 -36 -32 -43 -22 -6 8 -7 4 -3 -12 6 -30 -32 -70
-46 -49 -6 11 -8 10 -8 0 0 -7 -9 -23 -21 -35 -11 -12 -18 -15 -15 -7 8 19
-39 42 -62 31 -77 -39 -111 -44 -80 -13 9 9 9 12 0 12 -23 0 -12 18 18 29 17
5 30 15 30 22 0 7 9 9 23 5 32 -8 82 8 80 25 -2 10 11 14 47 16 27 1 60 9 72
17 39 28 43 17 8 -19z"/>
<path d="M4940 3704 c0 -8 -8 -14 -17 -15 -12 0 -8 -5 12 -14 26 -12 27 -14 8
-15 -15 0 -23 -7 -25 -22 -2 -17 -11 -24 -30 -26 -30 -4 -35 7 -16 37 9 15 8
22 -3 33 -8 8 -20 13 -27 10 -7 -2 -19 1 -26 8 -11 8 -16 8 -22 -1 -4 -7 1
-18 12 -26 10 -7 19 -23 19 -35 0 -13 10 -27 23 -34 37 -18 36 -22 -7 -34 -30
-8 -41 -16 -41 -30 0 -11 4 -20 9 -20 5 0 11 -9 14 -20 6 -22 33 -18 54 8 10
12 15 13 28 2 15 -13 37 -3 57 25 5 6 8 5 8 -2 0 -25 17 -13 28 20 9 29 10 30
12 7 1 -24 2 -24 10 -3 8 20 -3 139 -14 151 -3 2 -19 6 -36 7 -20 2 -30 -2
-30 -11z"/>
<path d="M4467 2198 c-4 -12 -16 -16 -44 -13 -53 5 -103 -5 -103 -20 0 -7 -7
-12 -16 -11 -28 2 -41 -30 -23 -60 14 -23 23 -26 76 -27 67 -2 97 -19 87 -49
-5 -18 -1 -19 38 -16 l43 3 -3 -61 c-3 -48 -1 -62 12 -67 8 -3 18 -2 22 4 3 6
11 4 18 -7 11 -14 16 -15 36 -4 15 8 25 9 27 3 2 -5 27 -8 58 -5 44 4 56 1 61
-12 11 -28 38 -17 58 24 21 44 31 48 57 24 23 -20 42 -9 33 19 -5 18 -4 20 7
10 18 -18 29 -16 29 3 0 19 39 53 61 54 40 1 51 52 22 102 -14 22 -24 28 -40
25 -13 -2 -23 -1 -23 2 0 12 -103 40 -170 46 -36 4 -67 11 -70 16 -10 15 -209
32 -225 19 -10 -8 -14 -7 -17 2 -3 8 -6 7 -11 -4z"/>
<path d="M100 7403 c0 -5 3 -13 7 -17 4 -4 6 -23 4 -42 -2 -26 1 -34 13 -34
11 0 16 -9 16 -30 0 -33 -11 -38 -30 -15 -9 10 -16 12 -25 5 -8 -6 -15 -6 -23
2 -9 9 -12 7 -12 -11 0 -14 5 -21 13 -18 20 7 47 -12 47 -33 0 -23 -19 -26
-39 -7 -11 10 -13 10 -7 0 4 -7 2 -13 -4 -13 -6 0 -15 10 -20 23 -5 12 -9 18
-9 13 -1 -5 -8 -3 -16 4 -13 11 -15 8 -15 -16 0 -16 5 -47 10 -69 6 -26 5 -44
-2 -52 -8 -10 -5 -13 11 -13 11 0 21 -4 21 -10 0 -5 -5 -10 -11 -10 -5 0 -8
-4 -5 -9 4 -5 9 -33 11 -63 3 -29 10 -54 15 -56 6 -2 10 -12 10 -23 0 -10 9
-28 20 -39 24 -24 27 -14 3 12 -15 17 -15 21 -3 29 34 21 45 6 42 -56 -2 -55
-1 -58 11 -36 10 17 16 20 22 11 6 -9 9 -9 16 1 12 20 11 72 -1 64 -6 -3 -10
3 -10 14 0 12 7 21 15 21 8 0 15 5 15 10 0 6 -7 10 -15 10 -9 0 -18 7 -22 16
-6 15 -8 15 -20 -2 -14 -18 -15 -18 -33 4 -12 15 -21 19 -26 11 -10 -17 -24
10 -24 48 0 25 5 33 28 41 18 6 35 6 45 0 14 -8 16 -5 11 22 -6 26 -4 30 14
30 11 0 23 -8 26 -17 3 -10 25 -27 49 -37 23 -11 45 -22 50 -24 4 -2 7 2 7 8
0 7 -9 14 -20 17 -11 3 -20 9 -20 14 0 11 14 12 24 2 4 -5 18 -8 29 -8 13 0
26 -9 32 -22 11 -25 35 -39 35 -21 0 26 -25 78 -37 78 -14 0 -16 15 -4 44 7
18 8 18 29 -4 12 -13 22 -18 22 -12 0 7 -9 21 -21 33 -16 16 -18 23 -8 35 6 8
23 13 38 11 20 -3 27 -10 29 -33 4 -33 14 -47 38 -50 16 -3 16 7 -1 77 -6 22
-3 27 19 33 29 7 34 23 10 33 -13 5 -13 7 -2 15 8 5 2 6 -17 2 -16 -4 -35 -11
-41 -16 -8 -6 -14 0 -18 17 -4 14 -11 23 -16 20 -6 -3 -10 -1 -10 4 0 6 -9 11
-20 11 -23 0 -28 -37 -9 -72 12 -22 3 -40 -10 -19 -6 9 -11 10 -15 2 -5 -7
-14 -8 -24 -2 -9 4 -27 7 -39 6 -17 -1 -23 4 -23 19 0 12 -9 32 -20 46 -11 14
-20 33 -20 43 0 14 -5 17 -19 12 -11 -3 -23 0 -28 7 -12 20 -43 42 -43 31z"/>
<path d="M3030 7140 c-18 -16 -37 -30 -41 -30 -4 0 -9 -9 -12 -20 -6 -22 -27
-28 -27 -8 0 7 -15 -3 -33 -22 -60 -63 -122 -110 -144 -110 -13 0 -23 -4 -23
-9 0 -12 64 3 121 27 55 24 195 116 232 153 17 18 23 30 16 34 -6 4 -16 2 -22
-4 -17 -17 -31 -13 -17 4 23 28 -14 17 -50 -15z"/>
<path d="M3113 7107 c-117 -90 -230 -159 -288 -176 -39 -11 -76 -33 -87 -50
-7 -12 -18 -21 -25 -21 -7 0 -10 -6 -7 -13 2 -7 -7 -24 -21 -37 -14 -13 -25
-30 -25 -37 0 -8 -5 -11 -12 -7 -7 4 -8 3 -4 -4 4 -7 -6 -20 -26 -32 l-33 -21
75 4 c71 4 110 9 172 22 15 4 36 21 50 43 27 41 40 72 32 72 -10 0 -98 -66
-118 -89 -11 -12 -24 -21 -30 -21 -6 0 3 12 19 26 17 14 47 40 68 59 20 19 51
42 67 50 16 9 48 39 71 68 23 28 47 56 55 60 8 4 14 15 14 23 0 10 6 13 19 9
11 -3 24 1 32 12 13 16 12 17 -4 4 -35 -27 -27 -3 13 38 22 22 40 43 40 46 0
7 -1 7 -47 -28z"/>
<path d="M7200 7121 c0 -11 4 -22 9 -25 5 -4 4 -17 -2 -31 -10 -20 -18 -25
-42 -23 -25 3 -31 8 -34 33 -3 26 -4 28 -11 10 -7 -17 -9 -17 -9 -2 -1 23 -16
22 -32 -4 -11 -16 -20 -19 -41 -14 -15 4 -26 12 -25 17 2 13 -49 29 -69 21
-18 -7 -18 -21 1 -40 14 -13 13 -18 -2 -43 -9 -16 -20 -27 -24 -24 -4 2 -11
-1 -16 -9 -9 -14 -57 -37 -78 -37 -20 0 -37 36 -30 60 4 11 15 20 27 20 17 0
18 2 8 15 -13 15 -41 21 -39 8 3 -21 -2 -33 -16 -33 -8 0 -15 -8 -15 -18 0
-10 -5 -23 -12 -30 -9 -9 -6 -12 13 -12 14 0 33 -6 42 -12 18 -14 30 -75 17
-83 -16 -10 -40 8 -40 30 0 28 -22 37 -66 29 -25 -5 -34 -3 -34 7 0 11 -2 11
-10 -1 -5 -8 -7 -23 -4 -32 3 -11 0 -18 -8 -19 -7 0 -4 -4 7 -8 11 -5 30 -4
43 0 43 17 55 12 50 -21 -4 -24 -1 -30 11 -28 10 2 15 12 13 23 -3 16 -2 17
13 5 9 -7 13 -20 11 -27 -4 -10 1 -13 17 -11 19 3 22 -1 19 -29 -3 -25 0 -33
12 -33 9 0 16 5 16 12 0 6 3 9 6 5 11 -11 -8 -49 -22 -43 -8 3 -14 1 -14 -5 0
-16 45 -6 47 11 1 8 5 36 8 63 7 53 16 59 33 22 8 -17 17 -23 28 -18 12 4 15
1 13 -12 -5 -24 -36 -28 -48 -7 -14 25 -21 12 -22 -44 -1 -27 -6 -54 -11 -61
-5 -7 -7 -17 -3 -22 4 -7 -1 -8 -11 -4 -11 4 -15 3 -10 -5 8 -14 -28 -25 -55
-17 -16 5 -19 4 -14 -6 6 -9 3 -11 -11 -6 -16 6 -17 5 -4 -5 17 -14 23 -48 9
-48 -5 0 -9 9 -9 19 0 11 -4 21 -9 23 -13 5 -24 48 -12 48 6 0 11 -5 11 -12 0
-6 2 -9 5 -6 3 3 1 17 -4 32 -9 22 -8 26 9 26 11 0 22 9 26 23 4 12 12 26 18
30 7 6 6 7 -4 5 -8 -3 -19 -14 -25 -25 -11 -26 -60 -28 -76 -4 -9 14 -10 14
-5 -2 3 -11 2 -15 -4 -12 -6 3 -10 0 -10 -7 -1 -8 -6 -6 -15 6 -11 14 -12 24
-3 40 11 20 10 20 -9 4 -11 -10 -25 -18 -31 -18 -6 0 -14 -5 -18 -12 -5 -7 -2
-9 8 -6 8 4 15 0 15 -8 0 -7 -4 -11 -9 -8 -4 3 -8 3 -8 -1 0 -3 24 -17 54 -31
56 -26 75 -49 56 -68 -16 -16 -12 -24 13 -29 21 -3 21 -4 2 -11 -85 -32 -95
-39 -92 -62 1 -13 11 -32 21 -43 18 -19 18 -19 47 6 15 14 26 30 22 36 -3 6
-1 7 6 3 9 -6 9 -11 0 -22 -7 -9 -8 -14 -1 -14 6 0 14 5 18 11 4 8 8 8 13 0 9
-14 51 -2 51 15 0 18 30 18 57 -1 19 -13 22 -13 27 0 15 40 96 37 96 -4 0 -10
9 -26 20 -36 12 -10 18 -25 16 -32 -3 -7 1 -13 9 -13 8 0 15 5 15 11 0 5 5 7
11 3 6 -3 9 -15 6 -25 -7 -26 15 -24 40 4 15 16 21 34 20 65 -2 37 3 47 33 73
39 34 29 53 -21 39 -17 -5 -31 -5 -35 1 -9 16 -34 -11 -34 -37 0 -29 -16 -39
-28 -17 -8 14 -13 15 -24 5 -8 -6 -18 -9 -21 -6 -9 9 16 32 29 27 6 -2 14 3
18 12 3 10 -1 18 -12 21 -9 3 -24 9 -33 14 -10 5 -21 4 -30 -5 -15 -14 -31
-18 -64 -16 -17 1 -16 5 13 32 19 17 40 28 47 25 8 -3 16 0 19 7 5 9 7 9 12 0
3 -7 10 -13 15 -13 17 0 51 38 45 49 -12 19 12 20 52 1 33 -16 39 -23 35 -41
-5 -18 -3 -21 10 -16 10 4 17 1 17 -6 0 -7 5 -4 11 6 5 9 18 17 29 17 12 0 20
8 22 22 2 13 15 28 29 35 33 16 57 43 39 43 -8 0 -21 7 -31 16 -16 14 -19 14
-38 -5 -17 -17 -21 -18 -21 -5 0 24 -26 0 -34 -31 -4 -17 -13 -25 -27 -25 -16
0 -19 4 -14 20 7 21 6 21 -55 24 -33 1 -34 3 -48 60 -11 45 -12 63 -3 77 14
23 14 49 1 49 -5 0 -10 -9 -10 -19 0 -22 -16 -36 -24 -22 -4 5 0 12 6 14 9 4
9 6 1 6 -6 1 -18 -6 -27 -14 -19 -19 -26 -19 -26 1 0 9 9 18 20 21 20 5 20 6
-5 39 -29 37 -30 44 -12 44 8 0 22 9 31 19 20 22 46 17 46 -8 0 -10 -9 -27
-21 -40 -12 -12 -19 -25 -16 -28 9 -8 27 7 27 23 0 15 16 19 24 5 3 -4 17 -7
32 -5 25 2 25 1 19 -39 -4 -23 -12 -50 -17 -60 -17 -33 50 -105 69 -75 8 14 9
20 11 86 2 30 6 42 17 42 8 0 15 4 15 9 0 5 11 12 25 15 25 6 35 39 15 51 -15
9 -12 45 5 51 8 4 15 13 15 22 0 8 7 23 16 33 20 23 12 37 -23 37 -15 0 -29 5
-31 11 -7 20 -42 13 -42 -8z"/>
<path d="M314 7009 c2 -8 7 -29 10 -46 5 -28 2 -33 -14 -33 -12 0 -20 8 -22
22 -5 37 -33 34 -35 -3 -1 -18 0 -29 4 -26 3 4 14 0 25 -7 11 -8 28 -12 39 -9
11 3 19 0 19 -7 0 -7 -7 -10 -15 -6 -9 3 -15 0 -15 -8 0 -7 -7 -19 -16 -26
-13 -11 -16 -10 -21 8 -3 12 -9 19 -14 16 -5 -3 -9 0 -9 7 0 10 -3 10 -12 1
-10 -10 -7 -17 13 -35 33 -27 46 -59 21 -50 -15 6 -15 4 -4 -9 10 -13 11 -22
2 -38 -9 -17 -9 -24 3 -33 8 -7 16 -18 19 -25 2 -8 18 -20 36 -28 29 -12 34
-11 39 2 3 9 -1 31 -10 49 -15 31 -15 34 3 50 12 11 20 13 25 5 11 -18 23 -2
30 39 5 32 11 40 32 44 17 3 33 -2 47 -14 l20 -19 -27 -26 c-18 -16 -27 -35
-27 -54 0 -20 -5 -30 -15 -30 -8 0 -15 5 -15 12 0 6 -3 8 -7 4 -4 -3 8 -20 26
-37 20 -18 31 -36 27 -44 -3 -8 -1 -15 4 -15 6 0 10 -9 10 -19 0 -23 -56 -47
-63 -28 -2 7 -8 8 -13 4 -15 -14 16 -24 64 -21 25 2 49 9 53 16 6 9 11 9 23
-1 14 -11 16 -11 16 5 0 26 34 45 70 39 28 -5 29 -4 20 20 -5 14 -7 32 -4 40
8 20 -45 125 -63 125 -7 0 -13 11 -13 25 0 16 -6 25 -15 25 -8 0 -15 6 -15 14
0 8 -8 13 -17 12 -13 -1 -18 7 -19 24 -1 50 -4 61 -14 55 -5 -3 -10 -21 -10
-38 -1 -30 -2 -31 -15 -13 -8 10 -20 16 -28 13 -18 -7 -37 11 -37 35 0 17 -16
23 -48 19 -8 -1 -23 6 -33 15 -15 13 -19 14 -15 3z"/>
<path d="M2772 6709 c-23 -4 -52 -19 -65 -31 -12 -13 -16 -16 -8 -6 8 10 12
20 10 22 -8 7 -179 -17 -179 -25 0 -5 7 -6 16 -2 14 5 14 3 3 -16 -8 -11 -19
-21 -26 -21 -6 0 -17 -16 -24 -35 -7 -19 -16 -35 -20 -35 -4 0 -12 -15 -19
-32 -7 -18 -23 -46 -35 -63 -38 -54 -65 -106 -65 -126 0 -11 -4 -17 -10 -14
-5 3 -7 19 -4 34 4 18 1 32 -7 36 -8 5 -10 4 -5 -4 4 -6 -5 -41 -19 -77 -14
-36 -29 -84 -31 -107 -3 -22 -8 -45 -10 -49 -7 -11 -24 0 -24 15 0 7 4 6 10
-3 7 -11 10 -7 10 17 0 27 21 104 45 168 7 18 6 19 -8 5 -9 -9 -25 -49 -36
-90 -13 -52 -20 -66 -21 -45 l-1 30 -21 -40 c-11 -22 -25 -43 -30 -46 -5 -3
-9 -9 -9 -13 1 -3 -14 -39 -34 -80 -19 -40 -35 -82 -35 -94 0 -11 -4 -24 -10
-27 -14 -9 -13 5 5 55 8 24 14 45 12 47 -6 5 -94 -187 -103 -222 -4 -16 -10
-34 -14 -40 -8 -10 -50 -145 -50 -159 0 -3 5 -6 10 -6 6 0 10 9 10 21 0 11 4
18 9 15 5 -4 11 -3 14 1 2 5 2 1 -1 -7 -3 -8 -6 -31 -7 -50 -2 -19 -5 -42 -8
-50 -3 -8 -14 -46 -23 -85 -9 -38 -21 -75 -26 -81 -5 -7 -8 -16 -6 -20 1 -5
-1 -24 -5 -43 -5 -24 -11 -31 -17 -25 -7 7 -7 27 -1 60 5 27 12 67 15 89 l6
40 -18 -46 c-27 -66 -39 -148 -78 -527 -13 -124 -15 -165 -6 -174 9 -9 12 -6
12 12 0 34 31 140 41 140 12 0 12 4 -11 -95 -11 -47 -20 -87 -20 -89 0 -1 13
-3 30 -3 16 0 27 3 25 7 -2 4 9 20 25 35 29 28 30 28 30 6 0 -31 -23 -53 -40
-38 -8 8 -11 8 -7 1 8 -15 -27 -87 -37 -77 -4 4 -14 -1 -22 -11 -16 -22 -19
-70 -4 -61 6 3 10 15 10 25 0 24 20 37 31 19 4 -8 11 -44 15 -82 4 -37 11 -70
15 -73 5 -3 9 -25 9 -48 0 -27 6 -48 16 -57 8 -7 13 -21 11 -31 -3 -10 -1 -16
3 -13 12 7 0 -64 -15 -95 -14 -29 -54 -150 -49 -150 5 0 94 140 94 147 0 3 14
28 31 54 24 38 31 61 34 114 3 36 13 85 23 108 11 24 22 58 26 77 3 19 22 78
42 130 93 246 105 284 93 291 -8 5 -7 9 3 15 21 13 33 40 49 112 7 34 16 62
20 62 3 0 14 20 23 45 13 32 15 49 7 62 -9 15 -11 14 -11 -12 -1 -27 -2 -28
-11 -10 -7 16 -8 13 -5 -12 5 -27 3 -31 -11 -26 -12 5 -15 2 -10 -10 3 -9 2
-19 -2 -22 -5 -2 -12 -17 -16 -32 -3 -16 -15 -37 -25 -48 -10 -11 -34 -51 -55
-90 -20 -38 -53 -90 -73 -114 -20 -25 -49 -63 -64 -85 -16 -23 -28 -36 -28
-31 0 6 -7 1 -15 -9 -8 -11 -15 -16 -15 -12 0 5 -7 3 -15 -4 -12 -10 -15 -9
-15 4 0 10 4 15 9 12 5 -3 12 1 15 10 3 8 10 12 16 9 5 -3 10 -1 10 5 0 6 18
31 41 55 47 50 143 191 154 226 4 13 11 26 15 29 3 3 24 46 45 95 21 50 41 92
45 95 9 7 40 93 40 113 0 9 4 17 9 17 5 0 9 11 9 24 0 13 14 55 32 92 18 38
34 76 35 84 1 8 23 68 49 134 26 65 50 135 53 155 4 20 9 38 12 41 4 3 15 24
25 47 18 42 17 73 -4 73 -6 0 -8 -4 -5 -10 3 -5 2 -18 -4 -27 -8 -14 -9 -11
-6 16 4 36 15 53 22 34 8 -21 25 -14 18 7 -4 11 1 32 11 50 10 16 16 32 13 35
-9 8 -70 -25 -76 -41 -6 -16 -13 -17 -32 -5 -11 7 -10 15 8 44 30 48 26 56
-11 21 l-32 -29 31 40 c16 22 37 54 46 70 9 17 16 23 17 14 0 -8 -4 -19 -10
-25 -14 -14 -23 -104 -11 -104 6 0 8 7 5 15 -4 8 -1 15 6 15 6 0 8 -5 4 -12
-5 -8 -2 -9 12 -3 10 4 29 8 42 8 12 -1 22 3 22 8 0 5 -3 8 -7 8 -30 -5 -37 2
-19 19 14 13 20 14 23 4 7 -19 49 41 58 84 2 6 11 24 21 39 9 15 19 41 21 58
2 17 10 38 19 48 16 17 54 110 54 131 0 7 -17 -4 -37 -23 -34 -31 -32 -26 7
24 8 11 20 25 26 31 12 13 44 71 44 81 0 7 -35 5 -88 -6z"/>
<path d="M189 6693 c-1 -10 -2 -25 -3 -33 -2 -8 -3 -22 -4 -30 -2 -18 -43 -22
-55 -6 -5 7 -15 2 -27 -13 -18 -21 -19 -26 -7 -40 8 -9 17 -23 20 -31 3 -9 6
-6 6 9 1 19 5 23 26 19 14 -3 28 -1 31 3 9 14 24 10 24 -6 0 -9 6 -18 14 -21
8 -3 17 -15 21 -27 l8 -22 4 23 c3 14 12 22 26 22 20 1 20 2 4 11 -21 12 -50
66 -42 79 11 18 25 11 36 -17 8 -22 12 -24 19 -13 12 18 13 61 3 58 -12 -3
-83 35 -83 44 0 16 -20 7 -21 -9z"/>
<path d="M1047 6610 c3 -23 2 -40 -4 -40 -6 0 -10 -12 -9 -27 0 -14 -4 -28
-10 -30 -7 -2 -10 5 -7 21 4 21 1 25 -16 23 -13 -1 -24 -10 -27 -24 -4 -13
-12 -23 -20 -23 -8 0 -14 -4 -14 -9 0 -5 11 -8 25 -7 13 2 22 -1 19 -5 -3 -5
4 -9 15 -9 10 0 21 5 23 12 6 18 38 1 38 -21 0 -10 6 -21 14 -24 20 -8 11 44
-10 60 -10 7 -15 15 -13 18 6 6 59 -43 59 -54 0 -5 9 -11 20 -14 13 -3 20 0
20 9 0 20 33 17 51 -5 9 -10 21 -31 27 -47 l10 -29 2 35 c2 31 3 32 9 11 4
-14 12 -26 18 -28 9 -3 9 4 2 29 -5 18 -9 34 -9 34 0 1 -7 1 -16 0 -9 0 -25
16 -37 41 -12 24 -27 41 -33 38 -7 -2 -15 14 -19 41 -3 24 -10 42 -15 39 -5
-3 -23 1 -39 10 -50 25 -60 21 -54 -25z"/>
<path d="M6422 6615 c-1 -38 -7 -74 -17 -104 -7 -22 -5 -24 23 -18 35 7 46 -1
31 -20 -9 -9 -8 -13 0 -13 6 0 16 11 21 24 5 13 25 45 44 71 20 26 36 51 36
56 0 15 -50 22 -76 10 -13 -6 -24 -7 -24 -2 0 5 6 12 13 14 7 3 5 6 -5 6 -13
1 -18 -7 -18 -26 l-1 -28 -13 30 -14 30 0 -30z"/>
<path d="M7148 6366 c-9 -19 -30 -41 -47 -49 -28 -14 -31 -14 -44 7 -14 20
-15 21 -35 3 -20 -18 -21 -18 -31 1 -6 12 -21 20 -38 20 -15 0 -29 5 -31 11
-4 13 -42 -15 -42 -31 0 -4 -9 -17 -20 -28 -11 -11 -20 -24 -20 -30 0 -12 27
-13 34 -1 3 5 15 11 26 14 29 8 25 -17 -5 -31 -22 -10 -24 -14 -13 -31 9 -15
8 -24 -5 -45 -23 -34 -22 -37 9 -26 38 15 91 3 97 -22 7 -25 31 -18 35 10 4
25 24 29 42 7 10 -12 9 -15 -5 -15 -14 0 -15 -3 -5 -15 16 -20 22 -19 50 7 13
13 32 21 42 20 11 -2 18 3 18 12 0 18 -8 20 -29 7 -9 -6 -22 -4 -37 5 -22 15
-23 26 -15 113 1 9 10 12 26 9 14 -3 28 -1 31 3 3 5 16 9 29 9 13 0 27 4 30
10 7 11 -15 90 -25 90 -3 0 -14 -15 -22 -34z"/>
<path d="M873 6323 c3 -15 1 -34 -3 -42 -5 -9 -11 -24 -14 -33 -6 -21 -24 -24
-23 -5 1 44 -4 57 -24 57 -11 0 -18 -4 -14 -9 3 -5 1 -12 -5 -16 -5 -3 -10
-14 -9 -23 0 -15 1 -15 8 1 6 17 8 17 20 3 7 -8 10 -19 7 -25 -3 -5 1 -11 9
-15 8 -3 15 -15 15 -26 0 -19 1 -20 25 -4 13 9 27 24 30 35 4 10 11 19 17 19
6 0 7 -8 3 -17 -10 -28 -16 -90 -7 -75 5 7 15 11 23 9 8 -2 11 -2 7 0 -5 3 -8
14 -8 25 0 17 4 19 25 14 18 -5 25 -2 25 9 0 8 6 15 13 15 6 1 -1 11 -17 25
l-30 24 37 -3 c45 -4 51 2 27 32 -21 25 -50 29 -50 7 0 -8 -4 -15 -10 -15 -5
0 -13 0 -17 0 -5 0 -8 6 -8 13 0 17 -30 47 -45 47 -8 0 -10 -10 -7 -27z"/>
<path d="M420 6285 c15 -18 5 -35 -20 -35 -11 0 -24 -9 -30 -20 -13 -23 -30
-26 -30 -5 0 15 -35 39 -58 40 -7 0 -16 6 -21 14 -6 10 -13 10 -29 2 -11 -6
-31 -11 -44 -11 -13 0 -33 -1 -45 -1 -13 0 -27 -9 -33 -19 -8 -15 -6 -19 13
-22 17 -2 22 -10 22 -33 0 -25 -4 -30 -25 -30 -15 0 -28 -7 -32 -18 -12 -28
-30 -9 -23 23 5 23 2 28 -16 33 -31 8 -49 -18 -47 -68 1 -36 2 -37 5 -7 4 33
23 45 23 15 0 -10 3 -28 6 -40 5 -18 2 -23 -12 -23 -16 0 -19 -9 -22 -59 -2
-43 1 -63 12 -74 20 -20 20 -31 1 -23 -8 3 -15 1 -15 -5 0 -7 10 -9 23 -5 16
4 26 -1 35 -14 7 -11 21 -20 32 -20 26 0 37 -27 19 -45 -17 -17 -37 -4 -58 38
-16 30 -31 36 -31 12 0 -8 -4 -15 -10 -15 -14 0 -14 -457 0 -465 6 -3 10 4 10
17 0 14 7 33 16 44 15 18 15 18 9 -11 -4 -16 -7 -42 -6 -57 0 -18 -6 -29 -19
-33 -20 -6 -28 -35 -10 -35 6 0 10 -7 10 -15 0 -8 -4 -15 -10 -15 -16 0 -13
-447 3 -454 9 -5 9 -7 0 -12 -17 -8 -19 -544 -2 -561 8 -8 8 -17 0 -31 -6 -11
-11 -43 -11 -71 0 -46 2 -51 32 -65 41 -21 51 -20 45 3 -7 28 9 49 25 33 19
-19 28 -14 28 13 0 16 6 25 15 25 8 0 15 -7 15 -16 0 -12 3 -14 13 -6 7 6 29
10 49 9 34 -2 35 -3 21 -19 -15 -16 -15 -18 0 -18 8 0 21 -13 29 -30 14 -33
51 -42 62 -15 3 8 10 15 17 15 6 0 9 -7 6 -15 -9 -23 9 -27 42 -8 26 15 32 16
43 4 8 -9 8 -11 1 -7 -7 4 -14 -3 -19 -16 -5 -17 2 -30 37 -62 34 -32 43 -47
40 -68 -4 -41 13 -34 34 13 19 41 19 41 36 20 22 -27 29 -27 28 2 0 12 3 45 8
72 8 46 11 50 36 49 17 -1 27 4 27 13 0 8 6 13 12 11 7 -3 19 1 26 9 17 17 35
7 27 -16 -9 -29 64 -15 75 14 5 13 13 26 19 29 6 4 7 14 4 23 -5 13 -2 15 11
10 10 -4 24 -7 32 -7 8 0 14 -7 14 -16 0 -12 7 -15 25 -12 17 4 25 1 25 -9 0
-9 6 -13 15 -10 8 4 17 2 20 -3 4 -6 2 -10 -3 -10 -6 0 -13 -7 -16 -16 -5 -13
-4 -14 7 -6 28 23 38 -20 12 -54 -12 -15 -16 -16 -23 -6 -7 11 -11 7 -16 -12
-7 -30 17 -71 47 -79 14 -4 17 1 17 28 0 31 3 34 32 37 24 2 34 9 36 23 2 11
8 25 14 30 6 7 7 -4 2 -30 -4 -22 -10 -42 -14 -45 -12 -8 -22 -68 -13 -73 17
-11 32 9 35 46 1 20 6 37 11 37 4 0 5 4 2 10 -3 6 1 7 9 4 17 -7 22 11 6 21
-6 4 -4 16 6 31 19 28 40 19 46 -19 2 -12 9 -21 16 -19 9 2 11 -4 7 -18 -4
-11 -2 -20 4 -20 6 0 11 18 11 40 0 22 4 40 9 40 5 0 13 10 16 21 8 23 -11 42
-32 35 -12 -5 -23 15 -23 42 0 13 2 13 13 -3 13 -17 15 -16 25 13 6 18 18 32
26 32 21 0 20 -20 -1 -36 -21 -15 -18 -20 20 -29 21 -6 27 -4 27 9 0 8 9 20
20 26 11 6 20 17 20 24 0 8 10 20 23 29 12 8 19 18 15 22 -4 4 -14 2 -22 -4
-13 -11 -16 -8 -22 13 -4 17 -13 26 -25 26 -10 0 -19 5 -19 10 0 6 -9 10 -20
10 -26 0 -26 24 0 50 11 11 20 25 20 30 0 6 7 10 17 10 15 0 15 2 -1 19 -9 10
-16 29 -15 42 1 13 1 33 0 44 -2 19 -2 20 -16 1 -10 -13 -11 -24 -5 -36 7 -13
4 -24 -10 -42 -20 -24 -21 -22 -24 27 -1 11 -8 20 -16 20 -9 0 -14 -8 -12 -21
1 -12 -4 -26 -12 -33 -8 -7 -14 -18 -12 -24 1 -7 1 -9 -1 -4 -7 11 -23 8 -23
-4 0 -6 7 -17 15 -25 8 -9 15 -30 15 -48 0 -49 11 -96 21 -90 5 3 6 -2 2 -11
-4 -12 -8 -13 -13 -4 -10 15 -30 -20 -30 -50 0 -14 -5 -19 -15 -15 -11 5 -15
-2 -15 -26 0 -21 -4 -30 -12 -27 -18 6 -10 79 10 95 14 10 11 12 -16 12 -22 0
-32 5 -32 15 0 8 7 15 15 15 8 0 19 10 26 21 9 18 13 19 21 8 7 -10 8 -7 4 11
-3 14 -6 34 -7 45 0 11 -3 15 -5 9 -2 -6 -18 -8 -34 -6 -24 3 -30 1 -30 -15 0
-10 5 -24 10 -29 12 -12 3 -44 -11 -44 -5 0 -15 -15 -23 -34 -16 -39 -28 -48
-50 -40 -20 8 -21 24 -1 24 8 0 15 7 15 15 0 9 -6 12 -15 9 -15 -6 -85 57 -85
77 0 5 0 12 0 17 2 21 -118 23 -145 2 -6 -5 -18 -3 -28 5 -23 17 -12 48 14 40
17 -6 19 -1 19 34 0 29 -4 41 -14 41 -18 0 -29 17 -21 31 5 7 13 5 24 -5 32
-29 55 19 27 56 -9 12 -16 14 -23 7 -8 -8 -17 -5 -32 10 -25 25 -26 29 -4 53
14 15 15 23 6 37 -10 15 -8 20 13 30 13 6 24 17 24 26 0 8 5 15 10 15 6 0 10
-4 10 -10 0 -5 22 -8 50 -7 28 2 53 0 56 -4 2 -5 10 -6 18 -3 7 3 24 0 38 -5
24 -9 26 -7 32 21 3 17 4 33 1 36 -3 3 -5 -2 -5 -11 0 -9 -7 -17 -15 -17 -16
0 -21 25 -6 34 5 3 7 15 4 26 -5 19 -6 19 -29 -5 l-24 -26 -10 26 c-6 15 -10
32 -10 38 0 8 -3 8 -9 -1 -7 -11 -9 -10 -15 3 -3 9 -11 13 -17 9 -8 -5 -10 1
-7 20 7 36 -6 41 -26 11 -25 -39 -40 -29 -16 10 24 39 20 55 -14 55 -19 0 -22
-5 -20 -35 2 -19 -1 -35 -6 -35 -6 0 -10 7 -10 15 0 8 -9 15 -20 15 -11 0 -35
9 -55 20 -20 11 -47 20 -61 20 -21 0 -25 4 -22 18 6 23 -17 58 -27 42 -4 -6
-4 -29 0 -50 6 -38 5 -40 -19 -40 -19 0 -27 6 -32 27 -5 18 -3 28 5 31 8 3 3
14 -14 32 -28 29 -27 50 2 50 19 0 42 28 43 51 0 14 32 37 36 27 1 -2 11 5 23
16 11 10 18 23 15 27 -8 14 -24 10 -24 -6 0 -21 -13 -19 -28 5 -7 12 -8 20 -2
20 5 0 10 11 10 25 0 29 12 32 31 9 12 -14 14 -14 20 5 5 11 6 31 3 45 -2 16
0 26 7 26 7 0 5 9 -5 25 -9 13 -16 31 -16 40 0 18 -11 20 -27 4 -15 -15 -25 4
-33 58 -7 44 -3 52 18 31 15 -15 16 9 2 46 -6 16 -6 27 0 31 6 4 10 15 10 27
0 17 -4 19 -25 14 -18 -5 -25 -2 -25 9 0 14 12 19 33 16 4 0 7 15 7 34 0 24
-5 35 -15 35 -8 0 -15 -9 -15 -19 0 -24 -43 -58 -49 -39 -2 7 1 14 7 16 20 6
14 26 -23 78 -44 61 -46 85 -7 75 21 -6 27 -14 27 -34 0 -15 5 -26 10 -24 6 1
9 10 8 20 -2 12 4 17 21 17 13 0 26 7 30 15 7 20 39 19 59 -3 11 -12 13 -22 7
-32 -5 -8 -7 -24 -4 -34 6 -17 2 -18 -27 -13 l-34 7 33 -21 c17 -12 32 -27 32
-34 0 -7 4 -15 9 -17 5 -1 13 -15 16 -30 6 -22 4 -28 -9 -28 -19 0 -19 -2 -4
-35 7 -16 19 -25 35 -25 26 0 27 -3 14 -45 -9 -34 3 -80 19 -70 6 4 30 -13 53
-38 54 -56 143 -83 176 -52 25 21 64 8 57 -19 -3 -11 -6 -25 -6 -29 0 -5 -10
-7 -22 -6 -13 2 -49 -1 -80 -5 -54 -7 -60 -6 -101 24 -34 24 -50 30 -70 24
-15 -3 -27 -8 -27 -11 0 -13 31 -32 64 -38 34 -7 36 -9 36 -45 0 -36 2 -38 30
-36 17 1 34 6 38 12 4 6 28 10 54 8 81 -4 87 -18 27 -57 -32 -21 -45 -25 -60
-17 -13 7 -19 7 -19 0 0 -5 5 -10 10 -10 6 0 10 -9 10 -20 0 -24 -27 -37 -43
-21 -15 15 -27 14 -27 -4 0 -8 5 -15 10 -15 7 0 7 -7 -1 -21 -10 -19 -7 -26
21 -53 l32 -31 -4 28 c-3 15 -1 27 3 27 5 0 9 7 9 15 0 8 5 15 10 15 11 0 13
-43 4 -78 -4 -14 -12 -21 -20 -18 -26 10 -15 -30 11 -42 14 -6 25 -16 25 -21
0 -15 40 -20 48 -5 6 11 16 9 52 -9 25 -12 47 -25 48 -29 2 -5 9 -8 15 -8 8 0
8 3 -1 12 -15 15 3 49 23 42 20 -8 19 -41 -1 -61 -9 -9 -14 -26 -11 -40 5 -29
-6 -37 -32 -23 -16 8 -22 6 -31 -7 -8 -15 -9 -13 -4 10 7 30 -11 38 -21 8 -6
-21 9 -66 30 -87 13 -14 15 -13 15 10 0 14 4 26 9 26 14 0 23 -33 10 -41 -6
-4 -8 -12 -4 -19 5 -8 13 -6 29 8 11 11 31 23 43 26 28 9 38 37 19 52 -9 6
-16 17 -16 25 0 10 3 10 12 1 15 -15 48 -16 48 -2 0 6 9 10 20 10 20 0 28 -24
10 -35 -14 -9 0 -35 16 -28 15 6 34 -33 34 -71 0 -16 7 -26 22 -29 28 -8 32
-3 19 21 -14 27 -14 45 1 40 19 -7 27 -52 12 -72 -7 -10 -17 -15 -22 -12 -6 3
-8 -2 -5 -14 7 -26 9 -25 37 5 13 14 26 25 30 25 11 0 6 -56 -6 -68 -7 -7 -8
-12 -2 -12 5 0 15 5 22 12 9 9 14 6 21 -13 6 -14 10 -18 10 -8 1 9 10 24 21
34 17 16 20 16 20 2 0 -8 -6 -22 -13 -29 -15 -15 -11 -39 9 -51 9 -5 11 -18 7
-37 -5 -26 -2 -30 15 -30 11 0 30 11 40 25 12 15 23 21 27 15 3 -6 11 -8 16
-5 16 11 9 -34 -11 -67 -26 -42 -25 -48 4 -48 14 0 28 -4 31 -10 3 -5 15 -10
26 -10 10 0 19 -4 19 -9 0 -5 8 -12 17 -15 18 -7 35 12 28 32 -3 9 0 10 15 2
11 -6 20 -20 20 -30 0 -11 6 -20 13 -20 21 0 37 49 30 96 -6 43 -11 48 -50 47
-11 -1 -22 34 -21 67 0 8 -3 23 -7 33 -5 12 -2 17 9 17 9 0 16 5 16 10 0 6 -4
10 -10 10 -5 0 -10 9 -10 20 0 34 -17 22 -24 -17 -3 -21 -15 -49 -25 -62 l-19
-25 -7 60 c-10 79 -19 96 -50 88 -19 -5 -25 -2 -26 10 -3 29 -4 34 -11 42 -5
4 -8 -2 -8 -14 0 -15 -5 -20 -15 -16 -8 4 -15 1 -15 -5 0 -18 -22 -13 -47 10
-21 20 -23 21 -29 5 -5 -14 -10 -9 -20 21 -8 21 -14 48 -14 61 0 12 -10 42
-22 65 l-21 42 -19 -40 c-15 -32 -18 -35 -17 -15 5 65 1 75 -32 75 -24 0 -34
-6 -40 -23 -12 -31 -32 -17 -25 17 l6 26 -15 -27 c-19 -33 -37 -28 -53 16 -16
43 -15 59 2 53 8 -3 20 1 26 9 9 10 9 14 1 14 -6 0 -11 8 -10 18 0 10 3 12 6
4 2 -6 9 -10 14 -6 5 3 5 12 0 23 -6 10 -8 32 -6 49 4 28 1 32 -20 32 -13 0
-26 4 -29 8 -3 5 30 14 73 20 44 6 96 21 118 33 44 25 102 87 102 109 0 10 -2
11 -6 3 -10 -26 -23 -12 -23 25 0 20 -8 46 -17 57 -15 20 -15 20 -10 -2 6 -25
-17 -33 -26 -10 -4 9 -8 8 -16 -3 -5 -8 -13 -11 -17 -7 -4 4 1 16 11 27 18 20
18 21 -3 27 -12 3 -22 9 -22 13 0 12 38 23 50 15 5 -3 10 1 10 11 0 13 -7 16
-33 11 -24 -4 -39 1 -62 19 -17 13 -25 24 -20 24 12 0 -16 20 -29 20 -5 0 -3
-7 4 -15 13 -16 9 -18 -27 -15 -13 1 -23 -4 -23 -12 0 -10 -29 -33 -70 -55 -3
-2 -6 6 -7 18 -3 39 -53 71 -53 33 0 -20 -24 -44 -44 -44 -8 0 -19 -7 -23 -15
-7 -12 -10 -11 -21 5 -10 16 -9 18 4 13 12 -4 14 1 12 23 -2 24 1 30 20 32 27
4 24 23 -5 37 -16 8 -19 15 -12 27 10 18 2 48 -12 48 -5 0 -9 -5 -9 -11 0 -8
-4 -8 -15 1 -10 8 -13 24 -10 50 4 31 2 39 -15 43 -15 4 -20 0 -20 -14 0 -10
-5 -19 -11 -19 -7 0 -9 9 -6 23 4 12 2 28 -2 36 -17 27 -1 40 42 35 23 -3 47
-10 53 -15 9 -7 14 -4 19 12 5 16 2 27 -11 37 -18 13 -18 14 4 7 12 -3 22 -2
22 3 0 5 -9 12 -20 15 -14 4 -23 -2 -32 -23 -9 -21 -16 -26 -24 -19 -7 5 -10
18 -7 28 4 14 -3 22 -30 30 -28 9 -34 16 -30 32 4 15 2 18 -11 13 -9 -3 -16
-1 -16 5 0 6 -7 8 -15 5 -10 -4 -15 0 -15 12 0 9 -3 14 -7 10 -5 -4 -8 -18 -8
-29 0 -26 -12 -28 -44 -5 -18 12 -25 27 -26 55 -1 33 -4 38 -25 35 -30 -3 -57
18 -38 29 9 6 6 9 -9 9 -19 0 -23 -5 -23 -33 0 -36 -29 -89 -30 -54 0 24 -23
21 -58 -8 l-29 -24 1 37 c1 35 -1 37 -29 36 -37 -2 -75 40 -56 59 9 9 15 8 22
-5 14 -25 27 -22 22 5 -3 15 -18 29 -44 40 -34 15 -55 47 -30 47 6 0 16 12 23
27 26 53 43 34 53 -61 1 -12 3 -24 4 -28 2 -14 20 -8 39 13 23 24 18 59 -9 66
-18 5 -36 40 -26 50 3 2 -2 12 -11 22 -21 21 -47 16 -67 -12 -8 -12 -15 -16
-15 -9 0 6 -9 12 -20 12 -11 0 -20 -4 -20 -10 0 -19 -32 -10 -37 10 -7 27 -29
19 -26 -9 2 -11 -2 -21 -8 -21 -5 0 -7 5 -4 10 3 6 -3 10 -15 10 -19 0 -21 -4
-15 -29 4 -20 2 -30 -9 -34 -8 -3 -17 -3 -20 0 -10 11 -7 51 5 59 8 5 6 10 -5
16 -9 5 -23 22 -31 38 -14 27 -14 30 6 43 12 9 16 18 10 21 -11 7 -4 36 10 36
5 0 9 -7 9 -16 0 -8 4 -13 9 -10 4 3 16 0 26 -8 15 -11 16 -16 5 -35 -12 -24
1 -53 17 -37 4 4 2 11 -6 15 -10 7 -10 9 2 14 9 3 18 -1 21 -10 5 -12 9 -13
22 -3 10 9 12 16 4 24 -15 15 -12 36 5 30 11 -4 15 1 16 17 1 13 2 29 4 34 1
6 3 18 3 28 1 10 6 16 11 12 6 -3 8 -19 6 -35 -3 -24 1 -31 26 -42 16 -7 29
-19 29 -25 0 -7 5 -13 11 -13 6 0 9 -7 5 -15 -3 -9 0 -15 9 -15 8 0 15 7 15
15 0 8 4 15 9 15 4 0 7 27 5 61 -4 58 -3 60 18 54 18 -6 20 -4 15 14 -3 11 -1
23 3 26 5 3 14 -12 20 -34 6 -22 15 -43 21 -47 18 -10 30 18 24 54 -4 19 -2
32 5 32 19 0 10 15 -17 28 -38 17 -51 15 -58 -8 -3 -11 -9 -20 -13 -20 -4 0
-13 9 -20 20 -7 11 -17 20 -23 20 -8 0 -8 -4 1 -15z m-47 -939 c3 -8 3 -23 1
-33 -3 -11 2 -25 12 -34 16 -13 17 -11 10 24 -8 40 2 47 29 20 13 -12 15 -26
11 -56 -6 -37 -5 -39 10 -26 10 8 26 14 37 14 29 0 32 21 5 28 l-22 6 28 30
c27 28 55 34 39 8 -4 -6 -6 -26 -5 -43 3 -34 -10 -49 -43 -49 -14 0 -21 -8
-23 -28 -3 -24 -7 -27 -25 -21 -12 3 -28 11 -34 16 -9 7 -13 7 -13 -1 0 -19
-17 -12 -23 9 -3 11 -13 20 -22 20 -23 0 -55 38 -48 56 3 8 9 14 14 14 5 0 9
5 9 11 0 5 -4 8 -9 5 -7 -5 -21 15 -21 30 0 14 33 0 37 -16 7 -28 23 -25 23 5
0 27 14 34 23 11z m792 -108 c10 -13 19 -18 21 -12 8 19 82 -11 152 -62 2 -1
-6 -12 -18 -24 l-21 -21 -27 21 -27 22 -14 -22 c-8 -13 -14 -39 -12 -59 1 -23
-3 -42 -12 -50 -12 -9 -19 -4 -39 31 -14 24 -28 50 -31 58 -4 12 -6 11 -6 -2
-1 -10 -4 -18 -7 -18 -9 0 -34 28 -34 37 0 15 25 63 33 63 4 0 7 14 7 30 0 36
13 38 35 8z m-931 -514 c9 -3 16 -15 16 -26 0 -17 3 -18 15 -8 19 16 56 4 48
-16 -3 -8 3 -24 13 -35 12 -13 14 -23 7 -30 -26 -26 -119 33 -106 68 5 14 2
14 -16 -4 l-22 -23 21 -22 c24 -26 26 -58 4 -58 -8 0 -13 -4 -9 -9 6 -12 -31
-34 -47 -29 -14 5 -20 58 -7 58 6 0 8 9 4 19 -3 11 -1 22 5 26 7 4 9 19 5 36
-5 23 -3 29 10 29 8 0 18 7 21 15 7 16 14 18 38 9z"/>
<path d="M7343 6199 c-31 -11 -29 -21 8 -43 36 -22 35 -47 -4 -60 -21 -8 -30
-7 -36 3 -6 9 -11 10 -15 2 -10 -15 -53 -14 -59 2 -3 9 -9 8 -22 -5 -15 -13
-16 -20 -6 -31 9 -12 9 -16 -2 -20 -7 -3 -20 -23 -29 -45 l-16 -40 29 -12 c22
-10 29 -19 31 -48 2 -25 8 -37 18 -37 11 0 15 12 15 45 0 39 3 45 23 48 12 2
22 -1 22 -7 0 -6 -4 -11 -10 -11 -5 0 -10 -5 -10 -10 0 -10 65 -8 75 1 2 2 6
29 10 59 3 30 16 75 27 100 27 57 27 50 -2 87 -21 25 -29 29 -47 22z"/>
<path d="M7648 6172 c-13 -5 -15 -11 -8 -22 14 -23 12 -30 -10 -30 -10 0 -23
8 -29 18 -9 16 -11 16 -25 -3 -8 -11 -16 -30 -16 -42 0 -33 -15 -36 -31 -6
-21 41 -57 73 -74 67 -22 -9 -18 -24 5 -24 24 0 25 -13 5 -44 -10 -15 -14 -37
-10 -61 6 -46 -1 -60 -21 -40 -9 8 -19 15 -24 15 -8 0 -26 -60 -18 -63 50 -26
65 -57 28 -57 -19 0 -20 -3 -10 -15 19 -23 3 -35 -28 -20 -18 9 -41 10 -72 5
-25 -4 -35 -8 -22 -9 24 -1 27 -14 12 -58 -12 -34 -40 -42 -33 -9 4 20 4 20
-10 4 -18 -23 -28 -23 -20 -1 5 14 3 13 -13 -3 -13 -12 -16 -22 -10 -26 7 -5
4 -8 -7 -8 -10 0 -16 -4 -13 -9 4 -5 -3 -7 -13 -4 -13 3 -23 -2 -30 -16 -7
-12 -15 -21 -20 -21 -5 0 -31 22 -59 49 -50 48 -52 49 -88 40 -25 -8 -40 -7
-47 0 -8 8 -6 11 7 11 15 0 16 3 6 15 -7 8 -20 14 -29 13 -9 -2 -15 3 -13 10
1 6 -3 12 -9 12 -7 0 -9 -10 -7 -25 3 -14 1 -25 -3 -25 -5 0 -9 -4 -9 -9 0 -5
8 -8 17 -7 14 1 17 -6 16 -34 -1 -19 1 -27 3 -17 6 19 24 24 24 6 0 -8 5 -8
15 1 21 18 48 5 40 -20 -7 -22 4 -27 22 -9 14 14 69 7 65 -8 -1 -7 5 -13 13
-13 8 0 15 -8 15 -18 0 -20 -29 -52 -47 -52 -6 0 -25 -16 -41 -34 -26 -30 -32
-33 -42 -20 -20 23 -50 18 -50 -8 -1 -22 -1 -23 -15 -4 -8 11 -15 28 -15 38 0
19 -34 26 -45 8 -3 -5 -17 -10 -30 -10 -15 0 -26 -7 -30 -21 -9 -28 -51 -18
-83 19 l-23 27 5 -33 c2 -19 13 -40 23 -49 10 -8 11 -11 3 -7 -8 4 -12 3 -7
-1 4 -5 15 -10 25 -11 9 -1 26 -5 36 -9 13 -6 17 -5 13 2 -4 6 3 13 14 16 20
5 20 5 3 -14 -9 -10 -15 -20 -13 -22 2 -1 26 -22 53 -47 36 -34 47 -40 42 -24
-7 22 16 40 36 28 5 -3 15 2 22 12 16 21 36 11 36 -18 0 -11 9 -33 20 -48 18
-25 18 -28 3 -24 -10 3 -27 -1 -37 -9 -19 -14 -19 -14 2 -35 12 -12 22 -27 22
-33 0 -6 9 -8 23 -4 21 7 21 7 2 -8 -17 -13 -18 -17 -5 -33 14 -17 13 -18 -2
-6 -14 11 -25 10 -67 -5 l-50 -17 19 -33 c17 -29 36 -84 46 -136 1 -9 10 -24
19 -33 8 -9 20 -25 27 -37 l11 -21 8 22 c4 12 6 35 4 52 -4 30 8 49 20 30 4
-6 10 -8 15 -5 4 3 17 -10 28 -29 20 -34 20 -34 1 -52 -19 -17 -19 -19 -4 -30
15 -11 14 -14 -7 -25 -13 -7 -26 -12 -30 -11 -12 3 -11 1 37 -84 25 -43 45
-83 46 -89 3 -33 17 52 19 115 1 62 3 70 11 45 5 -16 6 -38 3 -47 -7 -22 9
-23 30 -2 15 14 17 13 26 -12 12 -30 13 -29 -17 -38 -14 -5 -23 -3 -23 3 0 6
-4 11 -9 11 -6 0 -10 -24 -9 -52 0 -29 3 -47 6 -39 3 10 9 5 18 -15 l14 -29
-6 30 c-3 16 -2 27 2 23 3 -4 15 -3 24 2 36 19 96 -60 67 -89 -7 -7 -4 -13 8
-17 11 -5 20 -3 22 3 10 28 52 66 67 60 14 -6 15 -11 5 -28 -9 -17 -13 -19
-20 -8 -6 10 -9 6 -9 -13 0 -16 -4 -28 -10 -28 -5 0 -10 -7 -10 -15 0 -18 12
-19 27 -4 7 7 19 8 30 4 10 -5 24 -7 31 -6 7 1 27 -4 43 -11 23 -10 29 -18 26
-35 -3 -15 1 -23 9 -23 23 0 15 -28 -8 -32 -13 -2 -23 -10 -23 -18 0 -12 14
-15 65 -15 36 0 76 5 89 12 30 14 44 8 36 -17 -4 -13 3 -24 24 -39 23 -17 30
-30 34 -68 2 -27 12 -66 20 -88 9 -22 16 -70 17 -107 0 -37 5 -70 10 -73 6 -3
10 -43 10 -88 0 -58 3 -78 10 -67 6 8 9 32 8 52 -2 27 4 44 19 60 22 23 25 55
9 89 -11 25 11 69 34 69 17 0 20 -4 15 -20 -5 -16 -2 -20 19 -20 19 0 26 5 26
19 0 11 -6 22 -12 24 -7 3 -2 6 12 6 15 1 31 -4 37 -10 7 -7 12 4 16 38 3 26
9 56 12 65 5 13 1 20 -16 26 -22 9 -22 9 -2 14 17 4 20 12 18 39 -2 19 -4 36
-5 39 -9 20 -3 80 8 80 19 0 14 18 -8 25 -26 8 -26 22 0 30 20 6 20 15 20 385
0 233 -4 382 -10 385 -13 8 -13 52 0 60 14 8 13 95 -1 95 -6 0 -13 -8 -16 -19
-5 -19 -46 -23 -71 -7 -9 5 -10 -5 -6 -37 6 -40 3 -48 -25 -78 l-31 -34 -23
27 c-16 20 -26 25 -37 18 -8 -5 -27 -10 -42 -10 -15 0 -29 -4 -32 -9 -3 -5
-17 -12 -31 -15 -36 -9 -65 -37 -65 -62 0 -17 5 -21 20 -17 11 3 20 9 20 14 0
5 6 9 14 9 8 0 16 6 19 13 3 9 10 7 25 -7 21 -18 34 -18 88 -1 17 5 22 2 26
-19 3 -14 1 -26 -4 -26 -19 0 -2 -45 20 -55 27 -12 28 -26 4 -48 -23 -21 -28
-21 -53 2 -11 10 -28 18 -37 16 -9 -1 -20 3 -24 9 -5 7 -12 4 -22 -9 -13 -18
-17 -18 -37 -7 -18 12 -23 12 -30 0 -13 -20 -11 -26 14 -30 19 -3 22 -10 25
-55 2 -29 -2 -62 -9 -75 -10 -19 -13 -20 -23 -6 -10 13 -15 14 -29 3 -16 -11
-16 -13 -2 -19 9 -3 13 -11 10 -17 -8 -13 -45 18 -45 38 0 9 -15 13 -50 13
-59 0 -63 12 -18 51 25 23 28 30 15 35 -22 8 -56 -13 -67 -42 -11 -28 -25 -31
-34 -8 -3 9 -12 14 -20 11 -24 -9 -31 45 -9 63 15 12 18 24 15 54 -3 28 1 45
16 66 12 15 24 40 28 54 3 14 10 26 15 26 5 0 9 7 9 15 0 8 9 23 21 34 l21 19
-22 7 c-26 8 -76 -11 -84 -32 -3 -8 -1 -23 4 -33 8 -15 5 -22 -12 -34 -32 -23
-45 -20 -63 14 -9 17 -21 30 -28 30 -8 0 -8 -3 1 -9 11 -7 9 -13 -9 -30 -23
-21 -23 -21 -31 -1 -4 11 -12 20 -18 20 -20 0 -10 40 15 56 14 9 25 24 25 33
0 9 9 22 20 29 24 15 25 33 4 78 -18 38 -15 46 20 50 20 2 23 -1 19 -19 -5
-22 -5 -22 10 -2 9 11 17 27 17 35 0 8 16 28 35 43 19 15 34 31 34 35 -3 19
15 52 27 52 17 0 18 12 3 27 -22 22 -4 34 18 13 13 -11 36 -20 53 -20 25 0 33
6 41 28 16 47 97 76 102 36 1 -5 16 -14 35 -21 42 -14 52 -23 26 -23 -11 0
-25 -5 -32 -12 -10 -10 -16 -7 -28 11 -13 18 -18 20 -25 10 -5 -8 -16 -14 -26
-15 -35 -2 -63 -17 -65 -33 0 -9 -2 -22 -2 -29 -1 -7 -15 -23 -31 -37 -33 -27
-16 -34 25 -10 28 16 66 21 42 6 -8 -5 -12 -21 -10 -37 3 -26 6 -29 36 -26 19
2 32 -1 32 -8 0 -6 -4 -8 -10 -5 -5 3 -10 -2 -10 -12 0 -29 -29 -63 -53 -63
-22 0 -22 -1 3 -20 15 -12 37 -19 55 -18 26 3 30 7 28 31 -2 32 3 34 25 7 10
-12 31 -22 47 -23 28 -2 30 0 27 31 -1 17 2 32 7 32 5 0 17 3 27 7 14 5 16 2
10 -20 -4 -16 -1 -28 6 -33 7 -4 10 -3 5 1 -4 5 0 16 8 25 14 16 14 18 0 23
-19 8 -19 31 0 47 8 7 15 16 15 21 0 5 -7 9 -15 9 -8 0 -15 -7 -15 -15 0 -15
-38 -40 -47 -31 -3 3 -2 13 2 23 5 10 7 24 6 30 -1 7 6 24 15 37 13 21 14 33
5 75 -6 28 -8 64 -5 80 6 30 6 30 -24 21 -17 -4 -36 -11 -42 -15 -6 -4 -24 -4
-40 0 -33 7 -47 38 -35 75 6 20 8 20 20 4 11 -16 15 -16 29 -5 9 7 16 22 16
33 0 28 18 58 35 58 14 0 20 16 17 52 -1 10 13 23 38 35 36 16 59 42 26 30
-10 -4 -13 1 -10 16 4 22 4 22 -7 0 -13 -26 -29 -30 -29 -9 0 7 -11 16 -25 18
-29 6 -39 -15 -29 -59 6 -27 6 -27 -9 -8 -9 11 -17 15 -17 9 0 -18 -49 -66
-60 -59 -6 3 -10 -1 -10 -9 0 -26 -20 -28 -31 -3 -9 20 -8 30 6 51 20 30 14
56 -14 56 -14 0 -19 -6 -17 -25 0 -14 5 -25 9 -25 5 0 5 -5 2 -10 -4 -6 -11
-8 -16 -5 -5 4 -9 -4 -9 -15 0 -13 -8 -24 -20 -27 -23 -6 -24 -7 -8 -33 7 -10
9 -22 6 -26 -12 -11 -28 6 -28 30 0 12 -5 27 -12 34 -12 12 -9 13 31 24 22 6
21 36 0 41 -10 3 -19 12 -19 20 0 10 7 13 20 10 13 -4 26 1 34 12 10 14 21 17
47 13 l35 -6 2 59 c3 60 1 63 -30 51z m-212 -1383 c-1 -12 6 -25 14 -29 8 -3
30 -14 48 -23 19 -9 40 -17 48 -17 19 0 18 -12 -6 -38 -19 -20 -50 -21 -50 -1
0 23 -20 5 -30 -27 -7 -19 -17 -33 -23 -31 -15 5 -28 57 -22 84 3 12 0 25 -7
29 -7 5 -9 2 -5 -9 6 -17 -28 -35 -41 -22 -12 11 -8 40 7 51 15 12 6 38 -10
29 -5 -4 -9 -2 -9 4 0 9 25 17 66 20 15 1 20 -5 20 -20z"/>
<path d="M6804 6163 c3 -6 2 -22 -3 -35 l-10 -23 0 23 c-1 28 -21 19 -21 -9 0
-11 -4 -17 -10 -14 -11 7 -13 -24 -4 -49 3 -9 12 -16 20 -16 8 0 11 -6 8 -15
-9 -22 16 -18 43 7 31 29 39 17 26 -37 -11 -47 1 -62 17 -22 7 17 9 18 9 5 1
-13 9 -18 31 -18 17 0 30 -4 30 -8 0 -17 -25 -32 -52 -32 -37 0 -38 -28 -1
-32 19 -2 29 -10 34 -28 5 -20 8 -22 13 -8 4 9 23 19 42 23 25 4 35 11 33 23
-4 40 2 52 24 52 20 0 20 1 -6 15 -15 8 -34 12 -41 9 -20 -8 -29 12 -16 36 14
26 46 26 53 0 6 -22 28 -19 60 8 15 14 17 13 17 -9 0 -13 4 -30 9 -38 7 -10
12 -8 25 10 24 35 20 57 -11 61 -33 4 -34 21 -1 29 21 5 21 6 -7 11 -16 4 -34
2 -39 -3 -6 -5 -24 -9 -42 -9 -18 0 -34 -6 -37 -12 -3 -10 -7 -10 -19 0 -13
10 -17 10 -21 -1 -3 -8 -15 -17 -26 -20 -16 -4 -21 0 -21 14 0 10 4 19 9 19
12 0 41 29 41 41 0 5 -12 12 -26 15 -20 5 -31 1 -52 -22 -15 -16 -36 -29 -47
-30 -17 0 -20 5 -16 39 2 23 -2 43 -9 50 -10 9 -11 9 -6 0z"/>
<path d="M7925 6020 c-3 -5 2 -10 11 -10 14 0 15 -3 6 -12 -9 -9 -15 -9 -24 0
-7 7 -17 12 -22 12 -8 0 -8 -3 -1 -8 19 -13 45 -61 45 -81 0 -11 6 -22 13 -25
6 -3 2 -3 -9 -1 -19 5 -21 1 -21 -37 0 -45 25 -77 60 -78 27 0 25 155 -4 210
-20 39 -41 51 -54 30z"/>
<path d="M2023 5993 c-6 -16 -21 -62 -33 -103 -28 -93 -69 -200 -70 -180 0 12
-2 13 -9 1 -5 -7 -6 -23 -4 -35 3 -15 2 -17 -5 -8 -7 11 -10 8 -14 -12 -3 -15
-1 -23 5 -19 10 6 0 -35 -13 -52 -4 -5 -13 -41 -20 -80 -7 -38 -18 -90 -25
-115 -15 -53 -45 -245 -45 -286 1 -48 16 -8 34 86 19 103 62 302 75 350 6 19
16 60 24 90 14 55 79 237 98 276 6 12 12 34 13 50 2 16 7 37 11 47 4 9 3 17
-1 17 -5 0 -14 -12 -21 -27z"/>
<path d="M6644 5496 c-22 -25 -25 -56 -10 -101 9 -25 21 -51 26 -58 6 -7 24
-29 40 -51 17 -21 30 -33 30 -26 0 9 7 8 25 -4 30 -20 35 -20 35 -1 0 8 5 15
10 15 9 0 14 -14 11 -32 0 -4 11 -16 25 -27 27 -21 25 -24 -21 -35 l-30 -8 33
-29 c18 -16 37 -27 42 -24 5 3 7 -4 5 -15 -2 -11 0 -18 5 -15 4 3 11 -1 14 -7
3 -7 3 1 0 17 -5 30 -5 29 15 -7 29 -52 45 -59 36 -17 -11 50 -36 109 -46 109
-5 0 -8 4 -6 9 1 5 -12 22 -29 38 -33 32 -64 73 -64 84 0 4 22 -15 48 -43 l48
-51 48 21 c43 20 46 23 34 42 -9 14 -23 20 -50 20 -29 0 -38 4 -39 18 -4 53
-8 66 -30 85 -18 17 -20 18 -8 3 13 -18 13 -19 -6 -9 -11 7 -20 19 -20 29 0
24 -47 56 -86 58 -18 1 -34 7 -37 14 -5 16 -34 15 -48 -2z"/>
<path d="M1724 5206 c-23 -50 -25 -66 -20 -118 4 -36 3 -58 -2 -54 -5 3 -7 -6
-4 -21 3 -18 1 -24 -7 -19 -6 4 -12 31 -12 59 -1 33 -4 41 -6 22 -7 -50 -18
-47 -15 4 3 34 -1 57 -14 75 l-17 27 -18 -38 c-17 -36 -18 -36 -13 -8 4 27 3
27 -15 -10 -11 -22 -20 -53 -21 -70 0 -24 -3 -27 -10 -14 -6 11 -3 33 11 69
l20 54 -23 18 c-13 10 -29 18 -36 18 -13 0 -67 -53 -103 -102 l-20 -27 22 -11
c17 -10 20 -9 14 1 -6 9 -2 10 16 6 13 -4 30 -7 37 -7 6 0 12 -11 12 -25 0
-28 -27 -35 -36 -10 -9 22 -27 18 -21 -5 5 -18 4 -18 -19 -3 -13 8 -24 22 -24
29 0 20 -15 17 -47 -10 -16 -13 -61 -34 -100 -47 -67 -22 -72 -25 -66 -47 3
-13 5 -42 5 -65 0 -23 2 -53 4 -65 l5 -24 24 26 c31 33 58 33 83 -1 17 -23 22
-25 36 -14 14 12 16 11 16 -4 0 -14 4 -13 20 8 11 14 20 30 20 35 0 12 39 27
47 19 9 -9 -18 -77 -30 -78 -7 0 -3 -4 9 -9 11 -4 33 -6 48 -3 27 5 28 7 21
50 -6 39 -4 45 14 50 11 3 21 14 23 26 2 11 9 22 16 25 9 3 11 -3 6 -22 -5
-20 -2 -26 10 -26 10 0 19 -11 23 -30 6 -32 10 -35 33 -20 13 9 13 11 1 19
-11 7 -12 17 -5 42 11 38 34 51 34 18 0 -21 1 -21 19 -5 29 27 61 141 64 231
2 44 9 91 16 103 7 13 10 26 7 29 -3 3 -18 -20 -32 -51z"/>
<path d="M7190 4647 c-19 -15 -21 -53 -9 -137 5 -36 11 -87 14 -114 3 -28 8
-52 10 -55 12 -11 4 130 -10 182 -8 32 -15 61 -14 65 1 14 27 -64 28 -84 1
-27 32 -56 38 -36 3 7 13 17 23 22 24 13 70 -7 70 -29 0 -17 36 -45 48 -37 13
8 1 96 -13 96 -7 0 -24 9 -38 21 -21 16 -31 18 -46 10 -16 -9 -21 -7 -27 12
-9 30 -50 70 -64 62 -5 -3 -10 -2 -10 4 0 5 6 11 13 14 6 2 10 7 7 10 -3 3
-12 0 -20 -6z"/>
<path d="M0 3949 c0 -36 27 -65 70 -74 24 -5 31 -11 27 -25 -3 -13 2 -20 19
-24 13 -4 24 -13 24 -20 0 -8 7 -16 15 -20 9 -3 15 0 15 8 0 7 9 21 20 31 23
20 26 36 8 33 -7 -2 -12 5 -10 15 2 10 -3 17 -13 17 -8 0 -15 5 -15 10 0 6 -7
10 -16 10 -13 0 -15 -7 -10 -30 3 -16 2 -30 -3 -30 -13 0 -20 26 -14 51 4 14
2 20 -4 16 -7 -4 -9 0 -7 10 7 29 -8 41 -59 46 -47 6 -47 5 -47 -24z"/>
</g>
</svg>
